<svg version="1.1" viewBox="0.0 0.0 1920.0 720.0" fill="none" stroke="none" stroke-linecap="square" stroke-miterlimit="10" xmlns:xlink="http://www.w3.org/1999/xlink" xmlns="http://www.w3.org/2000/svg"><clipPath id="p.0"><path d="m0 0l1920.0 0l0 720.0l-1920.0 0l0 -720.0z" clip-rule="nonzero"/></clipPath><g clip-path="url(#p.0)"><path fill="#000000" fill-opacity="0.0" d="m0 0l1920.0 0l0 720.0l-1920.0 0z" fill-rule="evenodd"/><path fill="#000000" fill-opacity="0.0" d="m441.1181 1.7979003l1478.8977 0l0 720.0l-1478.8977 0z" fill-rule="evenodd"/><path fill="#ff571b" d="m553.9306 281.60104q19.59375 0 33.03125 12.625q13.453125 12.609375 13.453125 32.078125q0 15.28125 -6.375 25.296875q-6.359375 10.015625 -19.3125 15.21875l0 0.4375q11.40625 2.984375 17.484375 13.609375q6.09375 10.625 6.65625 32.546875q0.4375 21.90625 6.296875 29.984375l-35.625 0q-3.109375 -7.859375 -4.21875 -25.453125q-1.65625 -23.90625 -8.015625 -30.8125q-6.359375 -6.921875 -19.53125 -6.921875l-36.421875 0l0 63.1875l-35.625 0l0 -161.79688l88.203125 0zm-12.84375 73.15625q11.1875 0 17.4375 -5.421875q6.25 -5.4375 6.25 -17.71875q0 -11.5 -6.03125 -16.921875q-6.03125 -5.4375 -17.65625 -5.4375l-39.734375 0l0 45.5l39.734375 0zm138.79327 -31.65625q26.0 0 38.671875 8.53125q12.671875 8.515625 12.671875 24.0l0 62.859375q0 7.09375 0.9375 14.171875q0.9375 7.078125 3.15625 10.734375l-32.640625 0q-0.890625 -2.65625 -1.5 -5.46875q-0.609375 -2.828125 -0.828125 -5.703125q-6.75 6.96875 -16.765625 10.671875q-10.015625 3.703125 -22.640625 3.703125q-18.140625 0 -29.0 -9.125q-10.84375 -9.125 -10.84375 -26.0625q0 -16.375 10.1875 -25.0625q10.1875 -8.6875 37.078125 -11.6875q18.703125 -1.765625 24.671875 -4.578125q5.984375 -2.828125 5.984375 -9.796875q0 -7.859375 -4.59375 -11.78125q-4.59375 -3.9375 -16.109375 -3.9375q-9.953125 0 -15.265625 4.265625q-5.3125 4.25 -6.203125 13.4375l-32.203125 0q1.328125 -19.25 15.875 -29.203125q14.5625 -9.96875 39.359375 -9.96875zm-26.671875 86.984375q0 6.96875 4.75 10.953125q4.765625 3.984375 15.046875 3.984375q12.84375 0 19.421875 -6.75q6.59375 -6.75 6.59375 -19.703125l0 -12.5q-2.875 2.328125 -7.578125 3.484375q-4.703125 1.15625 -17.0 2.9375q-10.953125 1.4375 -16.09375 5.703125q-5.140625 4.25 -5.140625 11.890625zm170.5409 -86.984375q13.0625 0 21.578125 5.03125q8.515625 5.03125 12.609375 14.4375q6.640625 -9.40625 15.71875 -14.4375q9.078125 -5.03125 19.8125 -5.03125q21.25 0 31.984375 10.84375q10.734375 10.84375 10.734375 29.984375l0 79.46875l-32.203125 0l0 -67.734375q0 -16.046875 -4.703125 -21.625q-4.703125 -5.59375 -15.0 -5.59375q-10.84375 0 -16.21875 7.3125q-5.359375 7.296875 -5.359375 21.34375l0 66.296875l-32.203125 0l0 -72.15625q0 -11.625 -4.4375 -17.203125q-4.421875 -5.59375 -14.9375 -5.59375q-9.1875 0 -15.5 7.078125q-6.296875 7.078125 -6.296875 19.140625l0 68.734375l-32.203125 0l0 -117.203125l30.328125 0l0 15.9375l0.4375 0q6.859375 -9.625 15.875 -14.328125q9.03125 -4.703125 19.984375 -4.703125zm191.90594 0q26.000061 0 41.546936 17.875q15.5625 17.875 15.5625 45.640625l-0.234375 5.984375l-84.546936 0q0.671875 15.15625 7.90625 22.46875q7.25 7.296875 20.765625 7.296875q8.734436 0 16.140686 -4.46875q7.421875 -4.484375 9.421875 -10.796875l28.328125 0q-6.53125 19.921875 -20.140625 29.71875q-13.609375 9.78125 -34.75006 9.78125q-27.125 0 -43.5 -17.140625q-16.375 -17.15625 -16.375 -44.5q0 -26.234375 16.765625 -44.046875q16.765625 -17.8125 43.109375 -17.8125zm-27.671875 49.140625l52.34381 0q-2.3125 -12.953125 -8.34375 -18.921875q-6.03125 -5.984375 -17.437561 -5.984375q-11.734375 0 -18.59375 6.640625q-6.859375 6.640625 -7.96875 18.265625zm170.8847 -49.140625q22.453125 0 32.578125 11.34375q10.140625 11.34375 10.140625 35.6875l0 73.265625l-32.21875 0l0 -67.171875q0 -13.734375 -4.703125 -20.75q-4.703125 -7.03125 -15.875 -7.03125q-13.390625 0 -19.203125 7.96875q-5.8125 7.96875 -5.8125 24.453125l0 62.53125l-32.09375 0l0 -117.203125l30.546875 0l0 16.375l0.671875 0q5.859375 -9.40625 15.265625 -14.4375q9.40625 -5.03125 20.703125 -5.03125zm253.4375 -41.5l0 29.875l-48.59375 0l0 131.92188l-35.515625 0l0 -131.92188l-48.484375 0l0 -29.875l132.59375 0zm52.34265 0l0 26.4375l-32.203125 0l0 -26.4375l32.203125 0zm0 44.59375l0 117.203125l-32.203125 0l0 -117.203125l32.203125 0zm92.85669 -3.09375q13.0625 0 21.578125 5.03125q8.515625 5.03125 12.609375 14.4375q6.640625 -9.40625 15.71875 -14.4375q9.078125 -5.03125 19.8125 -5.03125q21.25 0 31.984375 10.84375q10.734375 10.84375 10.734375 29.984375l0 79.46875l-32.203125 0l0 -67.734375q0 -16.046875 -4.703125 -21.625q-4.703125 -5.59375 -15.0 -5.59375q-10.84375 0 -16.21875 7.3125q-5.359375 7.296875 -5.359375 21.34375l0 66.296875l-32.203125 0l0 -72.15625q0 -11.625 -4.4375 -17.203125q-4.421875 -5.59375 -14.9375 -5.59375q-9.1875 0 -15.5 7.078125q-6.296875 7.078125 -6.296875 19.140625l0 68.734375l-32.203125 0l0 -117.203125l30.328125 0l0 15.9375l0.4375 0q6.859375 -9.625 15.875 -14.328125q9.03125 -4.703125 19.984375 -4.703125zm191.90588 0q26.0 0 41.546875 17.875q15.5625 17.875 15.5625 45.640625l-0.234375 5.984375l-84.546875 0q0.671875 15.15625 7.90625 22.46875q7.25 7.296875 20.765625 7.296875q8.734375 0 16.140625 -4.46875q7.421875 -4.484375 9.421875 -10.796875l28.328125 0q-6.53125 19.921875 -20.140625 29.71875q-13.609375 9.78125 -34.75 9.78125q-27.125 0 -43.5 -17.140625q-16.375 -17.15625 -16.375 -44.5q0 -26.234375 16.765625 -44.046875q16.765625 -17.8125 43.109375 -17.8125zm-27.671875 49.140625l52.34375 0q-2.3125 -12.953125 -8.34375 -18.921875q-6.03125 -5.984375 -17.4375 -5.984375q-11.734375 0 -18.59375 6.640625q-6.859375 6.640625 -7.96875 18.265625zm171.9784 -49.140625q2.109375 0 3.875 0.28125q1.78125 0.265625 3.328125 0.828125l0 29.875q-2.765625 -0.546875 -5.375 -0.828125q-2.59375 -0.28125 -6.140625 -0.28125q-16.265625 0 -24.078125 9.96875q-7.796875 9.953125 -7.796875 26.671875l0 53.78125l-32.09375 0l0 -117.203125l30.546875 0l0 21.796875l0.4375 0q5.09375 -11.5 15.21875 -18.1875q10.125 -6.703125 22.078125 -6.703125z" fill-rule="nonzero"/><path fill="#d4d4d4" d="m34.94092 155.87485l0 0c0 -86.086876 80.72687 -155.87408 180.3085 -155.87408l0 0c99.581635 0 180.3085 69.7872 180.3085 155.87408l0 0c0 86.08688 -80.72687 155.87408 -180.3085 155.87408l0 0c-99.581635 0 -180.3085 -69.7872 -180.3085 -155.87408z" fill-rule="evenodd"/><path stroke="#efefef" stroke-width="1.0" stroke-linejoin="round" stroke-linecap="butt" d="m34.94092 155.87485l0 0c0 -86.086876 80.72687 -155.87408 180.3085 -155.87408l0 0c99.581635 0 180.3085 69.7872 180.3085 155.87408l0 0c0 86.08688 -80.72687 155.87408 -180.3085 155.87408l0 0c-99.581635 0 -180.3085 -69.7872 -180.3085 -155.87408z" fill-rule="evenodd"/><path fill="#000000" fill-opacity="0.0" d="m85.769844 155.87485l0 0c0 -61.82469 57.96998 -111.94351 129.47958 -111.94351l0 0c71.50961 0 129.47958 50.118816 129.47958 111.94351l0 0c0 61.824707 -57.96997 111.94351 -129.47958 111.94351l0 0c-71.5096 0 -129.47958 -50.118805 -129.47958 -111.94351z" fill-rule="evenodd"/><path stroke="#666666" stroke-width="16.0" stroke-linejoin="round" stroke-linecap="butt" d="m85.769844 155.87485l0 0c0 -61.82469 57.96998 -111.94351 129.47958 -111.94351l0 0c71.50961 0 129.47958 50.118816 129.47958 111.94351l0 0c0 61.824707 -57.96997 111.94351 -129.47958 111.94351l0 0c-71.5096 0 -129.47958 -50.118805 -129.47958 -111.94351z" fill-rule="evenodd"/><path fill="#000000" fill-opacity="0.0" d="m215.23991 43.93134l0 0c53.103348 0 100.823044 28.033314 120.37953 70.71788c19.556458 42.68457 6.984375 91.36563 -31.714783 122.80467l-88.66475 -81.57904z" fill-rule="evenodd"/><path fill="#000000" fill-opacity="0.0" d="m215.23991 43.93134l0 0c53.103348 0 100.823044 28.033314 120.37953 70.71788c19.556458 42.68457 6.984375 91.36563 -31.714783 122.80467" fill-rule="evenodd"/><path stroke="#ff9f0a" stroke-width="16.0" stroke-linejoin="round" stroke-linecap="butt" d="m215.23991 43.93134l0 0c53.103348 0 100.823044 28.033314 120.37953 70.71788c19.556458 42.68457 6.984375 91.36563 -31.714783 122.80467" fill-rule="evenodd"/><defs><linearGradient id="p.1" gradientUnits="userSpaceOnUse" gradientTransform="matrix(5.7955799295124075 0.0 0.0 5.7955799295124075 0.0 0.0)" spreadMethod="pad" x1="13.113846008354809" y1="118.43910682208538" x2="13.11382566437109" y2="124.23468675156208"><stop offset="0.0" stop-color="#fcfcf2"/><stop offset="0.81" stop-color="#fcfcf2"/><stop offset="1.0" stop-color="#f3f3f3"/></linearGradient></defs><path fill="url(#p.1)" d="m354.29385 704.9272c-30.855286 9.4158325 -83.1181 15.082397 -139.12883 15.0849c-56.010727 0.0025634766 -108.28627 -5.6591797 -139.16269 -15.072205l139.12497 -18.515564z" fill-rule="evenodd"/><path fill="#000000" fill-opacity="0.0" d="m354.29385 704.9272c-30.855286 9.4158325 -83.1181 15.082397 -139.12883 15.0849c-56.010727 0.0025634766 -108.28627 -5.6591797 -139.16269 -15.072205" fill-rule="evenodd"/><path stroke="#efefef" stroke-width="1.0" stroke-linejoin="round" stroke-linecap="butt" d="m354.29385 704.9272c-30.855286 9.4158325 -83.1181 15.082397 -139.12883 15.0849c-56.010727 0.0025634766 -108.28627 -5.6591797 -139.16269 -15.072205" fill-rule="evenodd"/><path fill="#fcfcf2" d="m25.758984 326.24814l383.4339 0l0 223.88705l-383.4339 0z" fill-rule="evenodd"/><path fill="#f3f3f3" d="m23.532484 328.57297l0 0c0 -24.293701 85.834595 -43.98767 191.71693 -43.98767l0 0c105.882355 0 191.71695 19.69397 191.71695 43.98767l0 0c0 24.293732 -85.834595 43.98767 -191.71695 43.98767l0 0c-105.88234 0 -191.71693 -19.69394 -191.71693 -43.98767z" fill-rule="evenodd"/><path stroke="#efefef" stroke-width="1.0" stroke-linejoin="round" stroke-linecap="butt" d="m23.532484 328.57297l0 0c0 -24.293701 85.834595 -43.98767 191.71693 -43.98767l0 0c105.882355 0 191.71695 19.69397 191.71695 43.98767l0 0c0 24.293732 -85.834595 43.98767 -191.71695 43.98767l0 0c-105.88234 0 -191.71693 -19.69394 -191.71693 -43.98767z" fill-rule="evenodd"/><path fill="#fcfcf2" d="m52.630817 547.16174l324.99298 0l0 79.50702l-324.99298 0z" fill-rule="evenodd"/><path fill="#fcfcf2" d="m64.31677 620.29376l11.654625 84.606995l87.94799 0l-11.654617 -84.606995z" fill-rule="evenodd"/><path fill="#fcfcf2" d="m268.80597 704.90076l11.63855 -84.606995l85.69949 0l-11.63855 84.606995z" fill-rule="evenodd"/><path fill="#fcfcf2" d="m141.87639 610.76294l146.18785 0l0 87.97528l-146.18785 0z" fill-rule="evenodd"/><path fill="#fcfcf2" d="m63.20827 620.3602l9.800411 -1.3510742l10.637726 77.73718l-9.800415 1.3511353z" fill-rule="evenodd"/><path fill="#fcfcf2" d="m366.0473 625.4413l-9.800415 -1.3511353l-9.952637 72.65625l9.8003845 1.3511353z" fill-rule="evenodd"/><defs><linearGradient id="p.2" gradientUnits="userSpaceOnUse" gradientTransform="matrix(-8.717976645983674 0.0 0.0 8.717976645983674 0.0 0.0)" spreadMethod="pad" x1="-40.661844322519826" y1="37.4224625478734" x2="-49.3798209682722" y2="37.42239904211343"><stop offset="0.0" stop-color="#fcfcf2"/><stop offset="0.81" stop-color="#fcfcf2"/><stop offset="1.0" stop-color="#f3f3f3"/></linearGradient></defs><path fill="url(#p.2)" d="m406.7225 326.24814c3.9315186 19.668243 22.373383 77.34131 23.589172 118.00931c1.2157898 40.668 -3.6577148 82.558655 -16.294373 125.99872c-12.636658 43.440002 -49.604645 112.20117 -59.525604 134.64142" fill-rule="evenodd"/><path stroke="#efefef" stroke-width="1.0" stroke-linejoin="round" stroke-linecap="butt" d="m406.7225 326.24814c3.9315186 19.668243 22.373383 77.34131 23.589172 118.00931c1.2157898 40.668 -3.6577148 82.558655 -16.294373 125.99872c-12.636658 43.440002 -49.604645 112.20117 -59.525604 134.64142" fill-rule="evenodd"/><defs><linearGradient id="p.3" gradientUnits="userSpaceOnUse" gradientTransform="matrix(8.717977590814984 0.0 0.0 8.717977590814984 0.0 0.0)" spreadMethod="pad" x1="8.718286761508036" y1="37.42245849212608" x2="3.091709243544295E-4" y2="37.422394986373"><stop offset="0.0" stop-color="#fcfcf2"/><stop offset="0.81" stop-color="#fcfcf2"/><stop offset="1.0" stop-color="#f3f3f3"/></linearGradient></defs><path fill="url(#p.3)" d="m23.772299 326.24814c-3.93153 19.668243 -22.373373 77.34131 -23.589174 118.00931c-1.2158005 40.668 3.6577094 82.558655 16.29437 125.99872c12.63666 43.440002 49.60466 112.20117 59.525597 134.64142" fill-rule="evenodd"/><path stroke="#efefef" stroke-width="1.0" stroke-linejoin="round" stroke-linecap="butt" d="m23.772299 326.24814c-3.93153 19.668243 -22.373373 77.34131 -23.589174 118.00931c-1.2158005 40.668 3.6577094 82.558655 16.29437 125.99872c12.63666 43.440002 49.60466 112.20117 59.525597 134.64142" fill-rule="evenodd"/><path fill="#ff9f0a" d="m207.12599 44.020996l0 0c0 -4.4269753 3.5535126 -8.015751 7.9369965 -8.015751l0 0c2.1050262 0 4.1238403 0.84451675 5.61232 2.3477592c1.4884796 1.5032463 2.3246918 3.54208 2.3246918 5.6679916l0 0c0 4.4269753 -3.5535126 8.015747 -7.9370117 8.015747l0 0c-4.383484 0 -7.9369965 -3.5887718 -7.9369965 -8.015747z" fill-rule="evenodd"/><path fill="#ff9f0a" d="m295.82153 237.51921l0 0c0 -4.4095764 3.5534973 -7.984253 7.9370117 -7.984253l0 0c2.105011 0 4.12381 0.8412018 5.6123047 2.3385315c1.4884644 1.497345 2.3246765 3.5281677 2.3246765 5.6457214l0 0c0 4.4095764 -3.5534973 7.984253 -7.936981 7.984253l0 0c-4.3835144 0 -7.9370117 -3.5746765 -7.9370117 -7.984253z" fill-rule="evenodd"/><path fill="#000000" fill-opacity="0.0" d="m70.840866 354.60522c-0.63617706 -1.5369568 -4.3470154 -6.8896484 -3.8170853 -9.221588c0.5299301 -2.3319702 3.4985962 -4.345978 6.996666 -4.770172c3.4980698 -0.42422485 10.387695 2.861084 13.991753 2.2249146c3.6040573 -0.63616943 9.116653 -6.466217 7.6325836 -6.041992c-1.4840698 0.42419434 -13.939941 5.9901733 -16.537003 8.58725c-2.5970535 2.597046 1.3786163 5.5641174 0.95466614 6.9950867c-0.42394257 1.4309387 -2.1733704 2.5975647 -3.4983292 1.5905762c-1.3249588 -1.0069885 -5.776375 -6.307617 -4.451416 -7.632599c1.3249588 -1.3249512 4.1863174 -2.8082275 12.401161 -0.3171692c8.214851 2.4910889 30.474838 14.892792 36.887917 15.263611c6.413086 0.3708191 4.5056 -10.600739 1.5905838 -13.038666c-2.9150085 -2.4379578 -15.105789 -3.7089844 -19.080666 -1.5890198c-3.9748764 2.119995 -2.277771 12.983978 -4.7685776 14.308929c-2.4908066 1.3249512 -10.123131 -3.6032715 -10.176254 -6.3591614c-0.053123474 -2.7559204 14.150597 -9.54007 9.857498 -10.17627c-4.293091 -0.63616943 -29.680069 5.2993164 -35.61608 6.3591614" fill-rule="evenodd"/><path stroke="#ffe599" stroke-width="4.0" stroke-linejoin="round" stroke-linecap="butt" d="m70.840866 354.60522c-0.63617706 -1.5369568 -4.3470154 -6.8896484 -3.8170853 -9.221588c0.5299301 -2.3319702 3.4985962 -4.345978 6.996666 -4.770172c3.4980698 -0.42422485 10.387695 2.861084 13.991753 2.2249146c3.6040573 -0.63616943 9.116653 -6.466217 7.6325836 -6.041992c-1.4840698 0.42419434 -13.939941 5.9901733 -16.537003 8.58725c-2.5970535 2.597046 1.3786163 5.5641174 0.95466614 6.9950867c-0.42394257 1.4309387 -2.1733704 2.5975647 -3.4983292 1.5905762c-1.3249588 -1.0069885 -5.776375 -6.307617 -4.451416 -7.632599c1.3249588 -1.3249512 4.1863174 -2.8082275 12.401161 -0.3171692c8.214851 2.4910889 30.474838 14.892792 36.887917 15.263611c6.413086 0.3708191 4.5056 -10.600739 1.5905838 -13.038666c-2.9150085 -2.4379578 -15.105789 -3.7089844 -19.080666 -1.5890198c-3.9748764 2.119995 -2.277771 12.983978 -4.7685776 14.308929c-2.4908066 1.3249512 -10.123131 -3.6032715 -10.176254 -6.3591614c-0.053123474 -2.7559204 14.150597 -9.54007 9.857498 -10.17627c-4.293091 -0.63616943 -29.680069 5.2993164 -35.61608 6.3591614" fill-rule="evenodd"/><path fill="#000000" fill-opacity="0.0" d="m57.800613 351.93073c0.13241577 -1.2720947 0.29100037 -5.69812 0.79449844 -7.6325684c0.5035019 -1.9344482 1.299057 -3.2321777 2.2265015 -3.9740906c0.92744446 -0.74191284 2.0132065 -2.093811 3.338169 -0.47732544c1.3249588 1.6164856 4.7175674 8.268219 4.61158 10.176239c-0.10598755 1.90802 -4.2669296 1.669342 -5.2475014 1.2718506c-0.98056793 -0.39752197 -2.5970535 -2.8354797 -0.63591385 -3.6569214c1.9611359 -0.82147217 8.692711 -3.073883 12.402748 -1.2718506c3.7100449 1.8020325 6.174156 10.81192 9.857498 12.084015c3.6833496 1.2720947 8.294144 -4.5574036 12.242584 -4.451416c3.9484482 0.10598755 10.785477 3.7623596 11.448082 5.087311c0.6626129 1.3249817 -4.0539017 4.107849 -7.472412 2.8624268c-3.418518 -1.2453918 -12.5351715 -6.598358 -13.038666 -10.334839c-0.5035019 -3.7364502 8.719139 -8.877441 10.017662 -12.083984c1.2985306 -3.206543 -0.15937042 -5.6976013 -2.2264938 -7.155243c-2.067131 -1.4576416 -8.162254 -2.7564392 -10.176254 -1.5906067c-2.014 1.165863 -1.907753 5.0347595 -1.907753 8.585663c0 3.5509338 2.5436707 9.592957 1.907753 12.71994c-0.63591766 3.1269836 -3.5239716 5.6177673 -5.7232513 6.041992c-2.1992722 0.42419434 -6.995346 -0.79397583 -7.472412 -3.4967651c-0.47707367 -2.7027588 2.278038 -9.857758 4.6100006 -12.71991c2.331955 -2.862152 6.016098 -4.664978 9.381744 -4.453003c3.365654 0.2119751 7.897156 3.0482178 10.812172 5.7248535c2.9150162 2.6766052 4.875885 7.684906 6.6779175 10.334808c1.8020248 2.6499329 2.650444 3.7626648 4.134247 5.5646667c1.4838028 1.8020325 3.3376389 5.194641 4.768585 5.247528c1.4309387 0.052856445 1.5379868 -3.4198608 3.8170853 -4.930359c2.279091 -1.510498 8.612091 -2.065796 9.857498 -4.13266c1.2453995 -2.066864 -1.2721024 -9.063538 -2.385086 -8.268494c-1.1129837 0.7950134 -4.55793 9.858551 -4.2928314 13.038666c0.26509857 3.1801147 3.8162918 6.7310486 5.883415 6.041992c2.0671234 -0.6890259 4.213806 -9.6727295 6.519333 -10.176239c2.3055267 -0.5035095 5.6180573 5.512329 7.3138275 7.155243c1.6957855 1.6429138 1.6949921 3.709259 2.8608398 2.70224c1.1658478 -1.0069885 4.134247 -7.1013184 4.134247 -8.744232c0 -1.6429138 -1.4312134 -0.42422485 -4.134247 -1.1132507c-2.7030487 -0.6890564 -9.88472 -4.186859 -12.084 -3.020996c-2.1992798 1.1658325 -1.2707825 7.763672 -1.1116638 10.016083c0.1591034 2.2523804 0.82092285 3.8427124 2.06633 3.4983215c1.2454071 -0.34439087 3.3392181 -4.266144 5.406082 -5.5646667c2.066864 -1.298523 5.9352264 -0.8748474 6.9950867 -2.2265015c1.0598602 -1.351654 1.4309387 -4.2669373 -0.6359253 -5.883423c-2.0668488 -1.6164856 -8.585403 -3.9214783 -11.765244 -3.8154907c-3.17984 0.10598755 -6.041733 2.6229553 -7.313835 4.451416c-1.2720947 1.8284607 -1.2461929 4.7173157 -0.31874847 6.519348c0.92744446 1.802002 4.478897 3.736206 5.883423 4.292816c1.4045105 0.5566406 2.1197205 -0.79422 2.5436554 -0.95306396" fill-rule="evenodd"/><path stroke="#ffe599" stroke-width="4.0" stroke-linejoin="round" stroke-linecap="butt" d="m57.800613 351.93073c0.13241577 -1.2720947 0.29100037 -5.69812 0.79449844 -7.6325684c0.5035019 -1.9344482 1.299057 -3.2321777 2.2265015 -3.9740906c0.92744446 -0.74191284 2.0132065 -2.093811 3.338169 -0.47732544c1.3249588 1.6164856 4.7175674 8.268219 4.61158 10.176239c-0.10598755 1.90802 -4.2669296 1.669342 -5.2475014 1.2718506c-0.98056793 -0.39752197 -2.5970535 -2.8354797 -0.63591385 -3.6569214c1.9611359 -0.82147217 8.692711 -3.073883 12.402748 -1.2718506c3.7100449 1.8020325 6.174156 10.81192 9.857498 12.084015c3.6833496 1.2720947 8.294144 -4.5574036 12.242584 -4.451416c3.9484482 0.10598755 10.785477 3.7623596 11.448082 5.087311c0.6626129 1.3249817 -4.0539017 4.107849 -7.472412 2.8624268c-3.418518 -1.2453918 -12.5351715 -6.598358 -13.038666 -10.334839c-0.5035019 -3.7364502 8.719139 -8.877441 10.017662 -12.083984c1.2985306 -3.206543 -0.15937042 -5.6976013 -2.2264938 -7.155243c-2.067131 -1.4576416 -8.162254 -2.7564392 -10.176254 -1.5906067c-2.014 1.165863 -1.907753 5.0347595 -1.907753 8.585663c0 3.5509338 2.5436707 9.592957 1.907753 12.71994c-0.63591766 3.1269836 -3.5239716 5.6177673 -5.7232513 6.041992c-2.1992722 0.42419434 -6.995346 -0.79397583 -7.472412 -3.4967651c-0.47707367 -2.7027588 2.278038 -9.857758 4.6100006 -12.71991c2.331955 -2.862152 6.016098 -4.664978 9.381744 -4.453003c3.365654 0.2119751 7.897156 3.0482178 10.812172 5.7248535c2.9150162 2.6766052 4.875885 7.684906 6.6779175 10.334808c1.8020248 2.6499329 2.650444 3.7626648 4.134247 5.5646667c1.4838028 1.8020325 3.3376389 5.194641 4.768585 5.247528c1.4309387 0.052856445 1.5379868 -3.4198608 3.8170853 -4.930359c2.279091 -1.510498 8.612091 -2.065796 9.857498 -4.13266c1.2453995 -2.066864 -1.2721024 -9.063538 -2.385086 -8.268494c-1.1129837 0.7950134 -4.55793 9.858551 -4.2928314 13.038666c0.26509857 3.1801147 3.8162918 6.7310486 5.883415 6.041992c2.0671234 -0.6890259 4.213806 -9.6727295 6.519333 -10.176239c2.3055267 -0.5035095 5.6180573 5.512329 7.3138275 7.155243c1.6957855 1.6429138 1.6949921 3.709259 2.8608398 2.70224c1.1658478 -1.0069885 4.134247 -7.1013184 4.134247 -8.744232c0 -1.6429138 -1.4312134 -0.42422485 -4.134247 -1.1132507c-2.7030487 -0.6890564 -9.88472 -4.186859 -12.084 -3.020996c-2.1992798 1.1658325 -1.2707825 7.763672 -1.1116638 10.016083c0.1591034 2.2523804 0.82092285 3.8427124 2.06633 3.4983215c1.2454071 -0.34439087 3.3392181 -4.266144 5.406082 -5.5646667c2.066864 -1.298523 5.9352264 -0.8748474 6.9950867 -2.2265015c1.0598602 -1.351654 1.4309387 -4.2669373 -0.6359253 -5.883423c-2.0668488 -1.6164856 -8.585403 -3.9214783 -11.765244 -3.8154907c-3.17984 0.10598755 -6.041733 2.6229553 -7.313835 4.451416c-1.2720947 1.8284607 -1.2461929 4.7173157 -0.31874847 6.519348c0.92744446 1.802002 4.478897 3.736206 5.883423 4.292816c1.4045105 0.5566406 2.1197205 -0.79422 2.5436554 -0.95306396" fill-rule="evenodd"/><path fill="#000000" fill-opacity="0.0" d="m115.19644 350.06674c-1.6429138 -1.8339539 -10.944054 -7.645294 -9.857498 -11.003845c1.0865555 -3.358551 15.68779 -7.4681396 16.376831 -9.14743c0.68904114 -1.6792603 -9.645523 -1.6794739 -12.242584 -0.92822266c-2.5970535 0.75128174 -4.293625 3.4251099 -3.3397446 5.4358215c0.9538727 2.0107117 5.2733994 6.4958496 9.062996 6.6285095c3.7895966 0.13265991 13.489044 -4.794098 13.674591 -5.832489c0.18553162 -1.0384216 -7.473213 -0.22128296 -12.56134 -0.39801025c-5.088127 -0.17675781 -17.278374 -2.0102844 -17.967415 -0.66244507c-0.68904114 1.3478088 7.738037 6.6062317 13.833168 8.74939c6.0951233 2.143158 18.63002 5.081909 22.73758 4.1095886c4.107559 -0.97229004 2.3052673 -7.181427 1.9077454 -9.94339c-0.3975067 -2.7619934 -2.013733 -5.6343994 -4.2928314 -6.6285095c-2.2790985 -0.9941406 -8.87825 -0.5073242 -9.381744 0.6637573c-0.5035019 1.1710815 3.9756622 4.48468 6.3607483 6.362732c2.385086 1.8780518 5.220276 5.6568604 7.949753 4.905609c2.7294617 -0.75128174 9.274963 -7.3141174 8.427078 -9.413208c-0.84788513 -2.0990906 -11.394424 -3.9326172 -13.51442 -3.1813354c-2.1199799 0.7512512 -0.9543915 6.517853 0.7945099 7.6889343c1.7489014 1.1710815 5.5913544 0.5749817 9.698914 -0.66244507c4.107559 -1.2374268 14.866867 -5.590973 14.946411 -6.7620544c0.079559326 -1.1710815 -13.196976 0.5308838 -14.469086 -0.2644348c-1.2720947 -0.7953491 3.6830902 -3.8890076 6.836502 -4.507599c3.1534271 -0.6185913 10.175995 -1.5682068 12.084 0.79599c1.90802 2.3641968 1.2456665 10.605225 -0.63591003 13.389221c-1.8815918 2.784027 -9.010666 3.8671875 -10.65358 3.314911c-1.6429291 -0.5522461 1.5379791 -4.9492188 0.79608154 -6.628479c-0.74191284 -1.6792908 -3.0215302 -1.9223633 -5.2474976 -3.4471436c-2.2259827 -1.5247803 -4.6102753 -4.9723816 -8.108337 -5.701599c-3.4980774 -0.7292175 -9.461578 0.13287354 -12.880089 1.3262329c-3.4185104 1.1933289 -9.221054 4.066162 -7.6309967 5.833832c1.5900574 1.7676392 13.037346 2.0100403 17.171333 4.7720337c4.1339874 2.7619934 6.890686 7.292267 7.6325836 11.799866c0.7418976 4.507599 -3.7906494 12.616364 -3.1811676 15.245697c0.6094818 2.629303 5.69841 0.4418335 6.838089 0.5302124" fill-rule="evenodd"/><path stroke="#ffe599" stroke-width="4.0" stroke-linejoin="round" stroke-linecap="butt" d="m115.19644 350.06674c-1.6429138 -1.8339539 -10.944054 -7.645294 -9.857498 -11.003845c1.0865555 -3.358551 15.68779 -7.4681396 16.376831 -9.14743c0.68904114 -1.6792603 -9.645523 -1.6794739 -12.242584 -0.92822266c-2.5970535 0.75128174 -4.293625 3.4251099 -3.3397446 5.4358215c0.9538727 2.0107117 5.2733994 6.4958496 9.062996 6.6285095c3.7895966 0.13265991 13.489044 -4.794098 13.674591 -5.832489c0.18553162 -1.0384216 -7.473213 -0.22128296 -12.56134 -0.39801025c-5.088127 -0.17675781 -17.278374 -2.0102844 -17.967415 -0.66244507c-0.68904114 1.3478088 7.738037 6.6062317 13.833168 8.74939c6.0951233 2.143158 18.63002 5.081909 22.73758 4.1095886c4.107559 -0.97229004 2.3052673 -7.181427 1.9077454 -9.94339c-0.3975067 -2.7619934 -2.013733 -5.6343994 -4.2928314 -6.6285095c-2.2790985 -0.9941406 -8.87825 -0.5073242 -9.381744 0.6637573c-0.5035019 1.1710815 3.9756622 4.48468 6.3607483 6.362732c2.385086 1.8780518 5.220276 5.6568604 7.949753 4.905609c2.7294617 -0.75128174 9.274963 -7.3141174 8.427078 -9.413208c-0.84788513 -2.0990906 -11.394424 -3.9326172 -13.51442 -3.1813354c-2.1199799 0.7512512 -0.9543915 6.517853 0.7945099 7.6889343c1.7489014 1.1710815 5.5913544 0.5749817 9.698914 -0.66244507c4.107559 -1.2374268 14.866867 -5.590973 14.946411 -6.7620544c0.079559326 -1.1710815 -13.196976 0.5308838 -14.469086 -0.2644348c-1.2720947 -0.7953491 3.6830902 -3.8890076 6.836502 -4.507599c3.1534271 -0.6185913 10.175995 -1.5682068 12.084 0.79599c1.90802 2.3641968 1.2456665 10.605225 -0.63591003 13.389221c-1.8815918 2.784027 -9.010666 3.8671875 -10.65358 3.314911c-1.6429291 -0.5522461 1.5379791 -4.9492188 0.79608154 -6.628479c-0.74191284 -1.6792908 -3.0215302 -1.9223633 -5.2474976 -3.4471436c-2.2259827 -1.5247803 -4.6102753 -4.9723816 -8.108337 -5.701599c-3.4980774 -0.7292175 -9.461578 0.13287354 -12.880089 1.3262329c-3.4185104 1.1933289 -9.221054 4.066162 -7.6309967 5.833832c1.5900574 1.7676392 13.037346 2.0100403 17.171333 4.7720337c4.1339874 2.7619934 6.890686 7.292267 7.6325836 11.799866c0.7418976 4.507599 -3.7906494 12.616364 -3.1811676 15.245697c0.6094818 2.629303 5.69841 0.4418335 6.838089 0.5302124" fill-rule="evenodd"/><path fill="#000000" fill-opacity="0.0" d="m109.473656 351.3371c1.5371933 -0.7154846 18.921288 -2.861908 24.645332 -1.2718506c5.724045 1.5900574 7.5525055 7.976715 9.698914 10.812164c2.1464233 2.8354797 1.8017731 5.432007 3.1795807 6.200592c1.3778229 0.7685852 3.0204773 -1.1914978 5.0873413 -1.5889893c2.066864 -0.39752197 5.432251 1.4298706 7.3138275 -0.79608154c1.8815918 -2.2259827 5.804123 -10.598877 3.9756622 -12.559753c-1.8284454 -1.9608765 -12.905975 -0.7952881 -14.946411 0.7944946c-2.0404358 1.5897827 1.4581757 7.843231 2.7038422 8.744263c1.2456665 0.901001 4.160675 -2.1723328 4.770157 -3.3381653c0.6094971 -1.165863 0.55636597 -2.1728516 -1.1132507 -3.6569214c-1.6696014 -1.4840698 -7.367218 -3.5514832 -8.904419 -5.2474976c-1.5371857 -1.6960449 -0.39830017 -3.020752 -0.31874084 -4.928772c0.07954407 -1.90802 -0.60842896 -5.85672 0.79608154 -6.5193176c1.4045105 -0.6626282 5.32547 0.3441162 7.6309967 2.5436707c2.3055267 2.199524 6.361023 9.089935 6.2021637 10.653564c-0.158844 1.5636292 -6.6517487 0.58306885 -7.155243 -1.2718201c-0.5035095 -1.8548889 -0.18527222 -7.445984 4.134247 -9.857513c4.3195343 -2.411499 19.34497 -2.67688 21.782913 -4.6115723c2.4379425 -1.9347229 -4.690613 -5.565735 -7.155243 -6.9966736c-2.4646454 -1.4309387 -5.962982 -1.9336548 -7.6325836 -1.5889893c-1.6696167 0.344635 -3.869156 0.29153442 -2.385086 3.6569214c1.4840698 3.365387 6.386917 13.514404 11.289505 16.5354c4.9025726 3.020996 18.020004 -0.87405396 18.125992 1.5905762c0.10598755 2.4646606 -12.905457 11.686768 -17.490082 13.197266c-4.5846252 1.510498 -8.639587 -1.6696167 -10.01767 -4.134247c-1.3780823 -2.4646606 -2.0404205 -10.017395 1.749176 -10.653595c3.7895966 -0.63616943 18.497345 4.9549255 20.988419 6.8365173c2.4910583 1.8815613 -2.9681396 4.214325 -6.0420074 4.453003c-3.0738678 0.23864746 -7.101074 -2.2259827 -12.401169 -3.0210266c-5.3000946 -0.7950134 -12.217728 -1.5900574 -19.399414 -1.7491455c-7.1816864 -0.15911865 -17.17186 1.1655579 -23.690666 0.7944946c-6.5188065 -0.37109375 -16.959358 -2.305542 -15.422165 -3.020996z" fill-rule="evenodd"/><path stroke="#ffe599" stroke-width="4.0" stroke-linejoin="round" stroke-linecap="butt" d="m109.473656 351.3371c1.5371933 -0.7154846 18.921288 -2.861908 24.645332 -1.2718506c5.724045 1.5900574 7.5525055 7.976715 9.698914 10.812164c2.1464233 2.8354797 1.8017731 5.432007 3.1795807 6.200592c1.3778229 0.7685852 3.0204773 -1.1914978 5.0873413 -1.5889893c2.066864 -0.39752197 5.432251 1.4298706 7.3138275 -0.79608154c1.8815918 -2.2259827 5.804123 -10.598877 3.9756622 -12.559753c-1.8284454 -1.9608765 -12.905975 -0.7952881 -14.946411 0.7944946c-2.0404358 1.5897827 1.4581757 7.843231 2.7038422 8.744263c1.2456665 0.901001 4.160675 -2.1723328 4.770157 -3.3381653c0.6094971 -1.165863 0.55636597 -2.1728516 -1.1132507 -3.6569214c-1.6696014 -1.4840698 -7.367218 -3.5514832 -8.904419 -5.2474976c-1.5371857 -1.6960449 -0.39830017 -3.020752 -0.31874084 -4.928772c0.07954407 -1.90802 -0.60842896 -5.85672 0.79608154 -6.5193176c1.4045105 -0.6626282 5.32547 0.3441162 7.6309967 2.5436707c2.3055267 2.199524 6.361023 9.089935 6.2021637 10.653564c-0.158844 1.5636292 -6.6517487 0.58306885 -7.155243 -1.2718201c-0.5035095 -1.8548889 -0.18527222 -7.445984 4.134247 -9.857513c4.3195343 -2.411499 19.34497 -2.67688 21.782913 -4.6115723c2.4379425 -1.9347229 -4.690613 -5.565735 -7.155243 -6.9966736c-2.4646454 -1.4309387 -5.962982 -1.9336548 -7.6325836 -1.5889893c-1.6696167 0.344635 -3.869156 0.29153442 -2.385086 3.6569214c1.4840698 3.365387 6.386917 13.514404 11.289505 16.5354c4.9025726 3.020996 18.020004 -0.87405396 18.125992 1.5905762c0.10598755 2.4646606 -12.905457 11.686768 -17.490082 13.197266c-4.5846252 1.510498 -8.639587 -1.6696167 -10.01767 -4.134247c-1.3780823 -2.4646606 -2.0404205 -10.017395 1.749176 -10.653595c3.7895966 -0.63616943 18.497345 4.9549255 20.988419 6.8365173c2.4910583 1.8815613 -2.9681396 4.214325 -6.0420074 4.453003c-3.0738678 0.23864746 -7.101074 -2.2259827 -12.401169 -3.0210266c-5.3000946 -0.7950134 -12.217728 -1.5900574 -19.399414 -1.7491455c-7.1816864 -0.15911865 -17.17186 1.1655579 -23.690666 0.7944946c-6.5188065 -0.37109375 -16.959358 -2.305542 -15.422165 -3.020996z" fill-rule="evenodd"/><path fill="#000000" fill-opacity="0.0" d="m114.71911 348.79373c2.8885803 -1.9344482 8.533333 -9.61911 17.331505 -11.606689c8.798157 -1.9875488 30.316513 -3.8432312 35.45749 -0.3187256c5.140991 3.524475 -1.4845886 18.073639 -4.6115723 21.465729c-3.1269836 3.3920898 -12.8785095 0.47680664 -14.15033 -1.1132507c-1.2718353 -1.5900574 -1.2980042 -7.4465027 6.519333 -8.427063c7.817322 -0.9805908 32.805725 4.45166 40.38466 2.5436401c7.5789337 -1.9079895 6.33432 -10.149292 5.088913 -13.99173c-1.2453918 -3.8424683 -8.480209 -7.4729614 -12.561325 -9.063019c-4.081131 -1.5900574 -7.261505 -0.90127563 -11.925415 -0.47732544c-4.663925 0.4239502 -10.016083 -0.2119751 -16.05809 3.020996c-6.041992 3.2329712 -24.672287 14.813202 -20.193909 16.376831c4.478363 1.5636292 39.45854 -4.61026 47.064163 -6.9950867c7.6056213 -2.3847961 1.0870819 -7.022278 -1.4304199 -7.3138123c-2.5175018 -0.29153442 -12.905991 2.3848267 -13.674591 5.5646667c-0.7685852 3.17984 4.9554443 12.189453 9.063004 13.514404c4.107559 1.3249512 14.071838 -2.8087463 15.582336 -5.5646667c1.510498 -2.75589 -2.491333 -9.142273 -6.519333 -10.970734c-4.028 -1.8284607 -12.905197 -0.2119751 -17.648666 0c-4.743469 0.2119751 -8.056259 -2.3322449 -10.812164 1.2718201c-2.7559052 3.604065 -9.751251 16.748444 -5.7232513 20.352509c4.028 3.604065 19.609283 1.7224731 29.89125 1.2718201c10.281967 -0.45062256 25.864563 -1.4317322 31.800583 -3.975647c5.93602 -2.5439453 6.0414734 -7.2863464 3.815506 -11.287933c-2.2259827 -4.0015564 -11.288452 -10.309998 -17.17134 -12.721497c-5.882889 -2.4115295 -14.892761 -4.0798035 -18.125992 -1.7475891c-3.2332458 2.3322449 -1.6709442 9.142578 -1.2734222 15.740936c0.3975067 6.598358 0.5843811 19.87436 3.658493 23.849243c3.0741272 3.9748535 9.830811 2.0404358 14.786255 0c4.9554443 -2.0404358 12.56134 -9.301147 14.946411 -12.242584c2.385086 -2.9414368 1.2456665 -3.8691711 -0.63591003 -5.4060974c-1.8815765 -1.5369263 -9.699448 -5.2728577 -10.65358 -3.8154907c-0.95414734 1.457367 1.0067291 10.810852 4.9287415 12.559753c3.9220123 1.7489014 15.10527 -0.23788452 18.603333 -2.0663452c3.4980774 -1.8284607 6.015579 -6.598877 2.385086 -8.904419c-3.630478 -2.3055115 -13.48851 -6.8898926 -24.168 -4.9287415c-10.679489 1.9611511 -32.515533 12.853119 -39.90892 16.695587c-7.393387 3.8424683 -5.3788605 5.007782 -4.451416 6.3591614c0.92744446 1.3513794 5.4845886 1.6164856 10.016083 1.749176c4.5315094 0.13265991 15.15892 0.15991211 17.172928 -0.9530945c2.0139923 -1.1129761 -1.617279 -4.982666 -5.088928 -5.724823c-3.471634 -0.7421875 -16.403519 0.7418823 -15.740906 1.2718201c0.6626129 0.52993774 14.072098 2.013733 19.716583 1.9077454c5.6444855 -0.10598755 10.864502 -0.052856445 14.15033 -2.5436401c3.2858276 -2.4908142 5.432251 -8.585144 5.5646667 -12.401184c0.13241577 -3.8160095 -1.7758636 -10.017914 -4.770172 -10.494995c-2.9943085 -0.4770813 -6.120224 4.876404 -13.195663 7.6325684c-7.075424 2.756195 -26.39476 9.407928 -29.256912 8.904419c-2.862152 -0.503479 3.2329712 -7.420349 12.084 -11.925415c8.851028 -4.505066 32.754196 -14.018433 41.022156 -15.10498c8.267975 -1.0865784 8.691666 3.5506592 8.585678 8.585663c-0.10598755 5.0350037 -9.857773 16.72174 -9.221588 21.624329c0.6361847 4.902588 13.515732 5.85672 13.038666 7.791168c-0.47706604 1.9344482 -9.328888 4.1334534 -15.901077 3.8154907c-6.5722046 -0.31796265 -20.35225 -1.8807983 -23.53209 -5.723236c-3.17984 -3.8424683 2.968933 -13.992279 4.453003 -17.331512c1.4840698 -3.339203 3.7095184 -2.2532043 4.451416 -2.703827" fill-rule="evenodd"/><path stroke="#ffe599" stroke-width="4.0" stroke-linejoin="round" stroke-linecap="butt" d="m114.71911 348.79373c2.8885803 -1.9344482 8.533333 -9.61911 17.331505 -11.606689c8.798157 -1.9875488 30.316513 -3.8432312 35.45749 -0.3187256c5.140991 3.524475 -1.4845886 18.073639 -4.6115723 21.465729c-3.1269836 3.3920898 -12.8785095 0.47680664 -14.15033 -1.1132507c-1.2718353 -1.5900574 -1.2980042 -7.4465027 6.519333 -8.427063c7.817322 -0.9805908 32.805725 4.45166 40.38466 2.5436401c7.5789337 -1.9079895 6.33432 -10.149292 5.088913 -13.99173c-1.2453918 -3.8424683 -8.480209 -7.4729614 -12.561325 -9.063019c-4.081131 -1.5900574 -7.261505 -0.90127563 -11.925415 -0.47732544c-4.663925 0.4239502 -10.016083 -0.2119751 -16.05809 3.020996c-6.041992 3.2329712 -24.672287 14.813202 -20.193909 16.376831c4.478363 1.5636292 39.45854 -4.61026 47.064163 -6.9950867c7.6056213 -2.3847961 1.0870819 -7.022278 -1.4304199 -7.3138123c-2.5175018 -0.29153442 -12.905991 2.3848267 -13.674591 5.5646667c-0.7685852 3.17984 4.9554443 12.189453 9.063004 13.514404c4.107559 1.3249512 14.071838 -2.8087463 15.582336 -5.5646667c1.510498 -2.75589 -2.491333 -9.142273 -6.519333 -10.970734c-4.028 -1.8284607 -12.905197 -0.2119751 -17.648666 0c-4.743469 0.2119751 -8.056259 -2.3322449 -10.812164 1.2718201c-2.7559052 3.604065 -9.751251 16.748444 -5.7232513 20.352509c4.028 3.604065 19.609283 1.7224731 29.89125 1.2718201c10.281967 -0.45062256 25.864563 -1.4317322 31.800583 -3.975647c5.93602 -2.5439453 6.0414734 -7.2863464 3.815506 -11.287933c-2.2259827 -4.0015564 -11.288452 -10.309998 -17.17134 -12.721497c-5.882889 -2.4115295 -14.892761 -4.0798035 -18.125992 -1.7475891c-3.2332458 2.3322449 -1.6709442 9.142578 -1.2734222 15.740936c0.3975067 6.598358 0.5843811 19.87436 3.658493 23.849243c3.0741272 3.9748535 9.830811 2.0404358 14.786255 0c4.9554443 -2.0404358 12.56134 -9.301147 14.946411 -12.242584c2.385086 -2.9414368 1.2456665 -3.8691711 -0.63591003 -5.4060974c-1.8815765 -1.5369263 -9.699448 -5.2728577 -10.65358 -3.8154907c-0.95414734 1.457367 1.0067291 10.810852 4.9287415 12.559753c3.9220123 1.7489014 15.10527 -0.23788452 18.603333 -2.0663452c3.4980774 -1.8284607 6.015579 -6.598877 2.385086 -8.904419c-3.630478 -2.3055115 -13.48851 -6.8898926 -24.168 -4.9287415c-10.679489 1.9611511 -32.515533 12.853119 -39.90892 16.695587c-7.393387 3.8424683 -5.3788605 5.007782 -4.451416 6.3591614c0.92744446 1.3513794 5.4845886 1.6164856 10.016083 1.749176c4.5315094 0.13265991 15.15892 0.15991211 17.172928 -0.9530945c2.0139923 -1.1129761 -1.617279 -4.982666 -5.088928 -5.724823c-3.471634 -0.7421875 -16.403519 0.7418823 -15.740906 1.2718201c0.6626129 0.52993774 14.072098 2.013733 19.716583 1.9077454c5.6444855 -0.10598755 10.864502 -0.052856445 14.15033 -2.5436401c3.2858276 -2.4908142 5.432251 -8.585144 5.5646667 -12.401184c0.13241577 -3.8160095 -1.7758636 -10.017914 -4.770172 -10.494995c-2.9943085 -0.4770813 -6.120224 4.876404 -13.195663 7.6325684c-7.075424 2.756195 -26.39476 9.407928 -29.256912 8.904419c-2.862152 -0.503479 3.2329712 -7.420349 12.084 -11.925415c8.851028 -4.505066 32.754196 -14.018433 41.022156 -15.10498c8.267975 -1.0865784 8.691666 3.5506592 8.585678 8.585663c-0.10598755 5.0350037 -9.857773 16.72174 -9.221588 21.624329c0.6361847 4.902588 13.515732 5.85672 13.038666 7.791168c-0.47706604 1.9344482 -9.328888 4.1334534 -15.901077 3.8154907c-6.5722046 -0.31796265 -20.35225 -1.8807983 -23.53209 -5.723236c-3.17984 -3.8424683 2.968933 -13.992279 4.453003 -17.331512c1.4840698 -3.339203 3.7095184 -2.2532043 4.451416 -2.703827" fill-rule="evenodd"/><path fill="#000000" fill-opacity="0.0" d="m157.33186 326.85208c2.8354492 -0.7154541 10.785202 -3.8686218 17.012741 -4.292816c6.227539 -0.42422485 19.928558 0.55529785 20.352509 1.7475891c0.42393494 1.1922607 -20.935822 5.4589233 -17.808838 5.406067c3.1269836 -0.052856445 31.98613 -4.451416 36.570755 -5.723236c4.5846252 -1.2718506 -7.950012 -2.9676208 -9.063004 -1.9077454c-1.1129913 1.059845 0.29153442 5.32547 2.385086 8.266907c2.0935516 2.9414368 6.307358 5.9896545 10.176254 9.381744c3.8688812 3.3920898 9.247742 7.9497375 13.037079 10.970764c3.789322 3.020996 9.168976 4.9025574 9.698914 7.155243c0.5299225 2.252655 -3.577896 6.0163574 -6.519333 6.3607483c-2.941452 0.34439087 -10.519852 -2.4924011 -11.1293335 -4.2944336c-0.6094818 -1.802002 5.484848 -8.266907 7.472412 -6.5177307c1.9875793 1.7491455 1.6439819 14.415955 4.453003 17.012756c2.8090363 2.5967712 9.989655 1.3241577 12.401169 -1.4320068c2.4115143 -2.7561646 2.915802 -14.257111 2.0679169 -15.105011c-0.84788513 -0.8479004 -7.499634 7.632599 -7.155258 10.01767c0.34439087 2.3850708 7.6582336 8.47995 9.221588 4.2928467c1.5633698 -4.187134 4.584091 -22.446075 0.1585846 -29.415527c-4.4255066 -6.9694214 -23.876205 -12.71936 -26.71167 -12.401154c-2.8354492 0.3182373 7.0223083 13.329926 9.698914 14.310516c2.6766205 0.9805603 5.168213 -11.050598 6.3607635 -8.4270935c1.1925354 2.6234741 3.89505 20.378662 0.7944946 24.168c-3.1005554 3.7893372 -18.788345 0.63513184 -19.397827 -1.4320068c-0.6094971 -2.0671082 9.380951 -9.301392 15.740906 -10.970734c6.359955 -1.6693726 21.358704 -1.0593567 22.418823 0.9546509c1.0601501 2.0140076 -13.408157 13.381989 -16.058075 11.1293335c-2.6499023 -2.252655 3.2855682 -19.292358 0.1585846 -24.645325c-3.1269836 -5.3529663 -15.104462 -6.5185547 -18.920502 -7.472412c-3.8160248 -0.95388794 -7.68544 0.37106323 -3.9756622 1.7491455c3.7097778 1.3780823 19.874374 6.4133606 26.23433 6.519348c6.35997 0.10598755 11.315933 -8.003418 11.92543 -5.883423c0.60946655 2.119995 -8.294937 12.56134 -8.268509 18.603333c0.026428223 6.041992 7.1549835 16.111725 8.427078 17.648682c1.2720947 1.5369263 0.95440674 -5.7504883 -0.7944946 -8.4270935c-1.7489014 -2.6766052 -8.797897 -9.249084 -9.698914 -7.632599c-0.90101624 1.6164856 3.3122559 13.303528 4.2928314 17.331512c0.98057556 4.028015 1.3254852 5.6970825 1.5905762 6.836487" fill-rule="evenodd"/><path stroke="#ffe599" stroke-width="4.0" stroke-linejoin="round" stroke-linecap="butt" d="m157.33186 326.85208c2.8354492 -0.7154541 10.785202 -3.8686218 17.012741 -4.292816c6.227539 -0.42422485 19.928558 0.55529785 20.352509 1.7475891c0.42393494 1.1922607 -20.935822 5.4589233 -17.808838 5.406067c3.1269836 -0.052856445 31.98613 -4.451416 36.570755 -5.723236c4.5846252 -1.2718506 -7.950012 -2.9676208 -9.063004 -1.9077454c-1.1129913 1.059845 0.29153442 5.32547 2.385086 8.266907c2.0935516 2.9414368 6.307358 5.9896545 10.176254 9.381744c3.8688812 3.3920898 9.247742 7.9497375 13.037079 10.970764c3.789322 3.020996 9.168976 4.9025574 9.698914 7.155243c0.5299225 2.252655 -3.577896 6.0163574 -6.519333 6.3607483c-2.941452 0.34439087 -10.519852 -2.4924011 -11.1293335 -4.2944336c-0.6094818 -1.802002 5.484848 -8.266907 7.472412 -6.5177307c1.9875793 1.7491455 1.6439819 14.415955 4.453003 17.012756c2.8090363 2.5967712 9.989655 1.3241577 12.401169 -1.4320068c2.4115143 -2.7561646 2.915802 -14.257111 2.0679169 -15.105011c-0.84788513 -0.8479004 -7.499634 7.632599 -7.155258 10.01767c0.34439087 2.3850708 7.6582336 8.47995 9.221588 4.2928467c1.5633698 -4.187134 4.584091 -22.446075 0.1585846 -29.415527c-4.4255066 -6.9694214 -23.876205 -12.71936 -26.71167 -12.401154c-2.8354492 0.3182373 7.0223083 13.329926 9.698914 14.310516c2.6766205 0.9805603 5.168213 -11.050598 6.3607635 -8.4270935c1.1925354 2.6234741 3.89505 20.378662 0.7944946 24.168c-3.1005554 3.7893372 -18.788345 0.63513184 -19.397827 -1.4320068c-0.6094971 -2.0671082 9.380951 -9.301392 15.740906 -10.970734c6.359955 -1.6693726 21.358704 -1.0593567 22.418823 0.9546509c1.0601501 2.0140076 -13.408157 13.381989 -16.058075 11.1293335c-2.6499023 -2.252655 3.2855682 -19.292358 0.1585846 -24.645325c-3.1269836 -5.3529663 -15.104462 -6.5185547 -18.920502 -7.472412c-3.8160248 -0.95388794 -7.68544 0.37106323 -3.9756622 1.7491455c3.7097778 1.3780823 19.874374 6.4133606 26.23433 6.519348c6.35997 0.10598755 11.315933 -8.003418 11.92543 -5.883423c0.60946655 2.119995 -8.294937 12.56134 -8.268509 18.603333c0.026428223 6.041992 7.1549835 16.111725 8.427078 17.648682c1.2720947 1.5369263 0.95440674 -5.7504883 -0.7944946 -8.4270935c-1.7489014 -2.6766052 -8.797897 -9.249084 -9.698914 -7.632599c-0.90101624 1.6164856 3.3122559 13.303528 4.2928314 17.331512c0.98057556 4.028015 1.3254852 5.6970825 1.5905762 6.836487" fill-rule="evenodd"/><path fill="#000000" fill-opacity="0.0" d="m240.42468 354.99408c4.107544 -4.451935 16.350647 -25.466278 24.645325 -26.71167c8.294678 -1.2453918 25.255096 14.999268 25.12268 19.239258c-0.13241577 4.2399597 -19.477661 7.870178 -25.917175 6.2005615c-6.439514 -1.6695862 -7.4198303 -12.349335 -12.719925 -16.218231c-5.3000946 -3.8688965 -14.68158 -9.327057 -19.080658 -6.9950867c-4.3990936 2.3319702 -13.037872 16.852844 -7.313843 20.986816c5.724045 4.1340027 31.773636 5.671997 41.658096 3.8171082c9.88446 -1.8548889 19.07959 -12.243378 17.648651 -14.946411c-1.4309387 -2.703064 -24.538544 -3.1534424 -26.234314 -1.2718506c-1.6958008 1.8815918 13.701263 13.038422 16.059662 12.56134c2.3583984 -0.4770813 -0.027770996 -11.342621 -1.9093323 -15.423767c-1.8815918 -4.0811157 -6.3591614 -8.294647 -9.380157 -9.062988c-3.0210266 -0.76834106 -9.673294 1.1669006 -8.74585 4.453003c0.92744446 3.2861023 6.4133606 13.779785 14.310486 15.26358c7.897156 1.4837952 25.122406 -4.5055847 33.07242 -6.3607483c7.9500427 -1.8551636 11.315155 -6.254242 14.627686 -4.770172c3.3125305 1.4840698 10.282501 10.441345 5.2474976 13.674591c-5.0350037 3.2332458 -26.792023 5.7776794 -35.45749 5.724823c-8.665497 -0.052856445 -14.494995 -3.2858276 -16.53543 -6.041992c-2.0404358 -2.7561646 -4.37265 -9.116913 4.2928467 -10.494995c8.665466 -1.3780823 45.792053 5.187988E-4 47.700073 2.2265015c1.90802 2.2259521 -29.070312 10.016327 -36.252014 11.1293335c-7.181671 1.1129761 -11.369568 -3.4179993 -6.8380737 -4.451416c4.531494 -1.0334473 25.573578 -1.6696167 34.0271 -1.749176c8.453491 -0.079559326 18.787537 2.225708 16.69397 1.2718506c-2.0935364 -0.95388794 -21.861938 -5.378601 -29.25531 -6.9950867c-7.393402 -1.6164856 -13.35611 -1.1666565 -15.105011 -2.7038574c-1.7489014 -1.5371704 2.4387512 -9.036835 4.611603 -6.5193176c2.172821 2.5174866 7.4184875 15.900299 8.425476 21.624329c1.007019 5.7240295 -0.36947632 10.599945 -2.383484 12.71991c-2.0140076 2.119995 -6.043335 0.8479004 -9.7005005 0c-3.657196 -0.8478699 -14.601257 -1.4304199 -12.242584 -5.087311c2.3586426 -3.6569214 20.458466 -12.958588 26.3945 -16.854187c5.9360046 -3.8955688 9.221588 -4.7968445 9.221588 -6.5193176c0 -1.7224731 -6.942749 -4.265869 -9.221588 -3.8155212c-2.278839 0.45037842 -5.193329 2.171814 -4.451416 6.517761c0.7418823 4.3459473 7.524994 15.238464 8.902832 19.558014c1.3778076 4.319519 4.0015564 5.908783 -0.6359253 6.3591614c-4.6374817 0.45037842 -19.662933 -2.2791138 -27.188995 -3.6569214c-7.526062 -1.3778381 -15.423492 -2.755127 -17.967407 -4.610016c-2.5439453 -1.8548889 -1.0062256 -6.148224 2.703827 -6.5193176c3.710022 -0.37109375 18.231445 1.9873047 19.556396 4.292816c1.3249817 2.305542 -8.294128 7.791443 -11.606659 9.540344c-3.3125305 1.7489014 -6.5991516 0.68826294 -8.268494 0.9530945c-1.669342 0.26483154 -6.385071 1.5633545 -1.7475891 0.6358948c4.6374817 -0.9274292 22.974152 -4.3988037 29.57251 -6.2005615c6.598358 -1.8017578 9.51416 -5.4050293 10.01767 -4.610016c0.503479 0.79504395 -1.8821106 8.4263 -6.9966736 9.380188c-5.114563 0.9538574 -17.72821 -1.8813477 -23.690674 -3.6569214c-5.962433 -1.7756042 -10.281952 -4.770691 -12.083984 -6.9966736c-1.8020325 -2.2259827 -1.5107727 -3.9743347 1.2718201 -6.3591614c2.7825928 -2.3848267 10.282776 -5.432251 15.423767 -7.949768c5.1409607 -2.5174866 16.111206 -5.0881042 15.42215 -7.155243c-0.6890259 -2.0671082 -14.600983 -3.8694153 -19.556427 -5.2474976c-4.9554443 -1.3780823 -5.485626 -2.2790833 -10.176239 -3.020996c-4.690613 -0.74191284 -18.312073 -2.4109802 -17.967407 -1.4304199c0.34465027 0.9805603 15.07962 6.942749 20.03534 7.313843c4.9556885 0.37106323 5.6708984 -3.9743652 9.698914 -5.0873413c4.0279846 -1.1129761 10.361786 -2.888855 14.469086 -1.5905762c4.1072693 1.2982483 9.088348 4.954651 10.174652 9.380157c1.0863037 4.4255066 -1.0865479 14.1519165 -3.6569214 17.172913c-2.570343 3.020996 -12.401428 0.50271606 -11.765228 0.9530945c0.63616943 0.45037842 10.626862 1.4045105 15.582306 1.7491455c4.9554443 0.34466553 8.108337 -0.10543823 14.15036 0.3187561c6.041992 0.42422485 20.670715 1.7230225 22.101654 2.2265015c1.4309387 0.5035095 -9.30246 0.42367554 -13.515991 0.7944946c-4.213562 0.3708191 -9.989929 0.87405396 -11.765259 1.4304199c-1.7753296 0.55636597 -1.4042358 2.013733 1.1132507 1.9077454c2.5174866 -0.10595703 10.520386 -2.6763306 13.99176 -2.5436401c3.4713745 0.13265991 2.9675903 3.286621 6.836487 3.3397522c3.8688965 0.053100586 12.1633 -1.8020325 16.376831 -3.0210266c4.2135315 -1.2189636 7.817871 -2.172821 8.904419 -4.292816c1.0865479 -2.119995 1.4837952 -7.738037 -2.3850708 -8.4270935c-3.8688965 -0.6890259 -19.715271 2.5970764 -20.828247 4.2928467c-1.1130066 1.6957703 11.1293335 4.7952576 14.15033 5.881836c3.020996 1.0865479 5.0886536 0.23999023 3.975647 0.6374817c-1.1129761 0.39752197 -6.3340454 1.2176514 -10.653564 1.7475891c-4.3195496 0.52993774 -10.493683 2.5714111 -15.26358 1.4320068c-4.769928 -1.1394348 -11.765778 -5.00885 -13.355835 -8.268494c-1.5900574 -3.259674 1.6954956 -8.745575 3.8154907 -11.28952c2.119995 -2.5439148 6.6784363 -4.0800476 8.904419 -3.97406c2.2259827 0.10598755 4.027466 2.3044434 4.451416 4.6099854c0.4239502 2.305542 -0.18527222 6.2550354 -1.9077454 9.223175c-1.7224731 2.9681396 -4.849457 6.8103333 -8.4270935 8.585663c-3.5776367 1.7753296 -11.740143 1.2977295 -13.038666 2.0663147c-1.298523 0.7686157 2.4117737 1.9622192 5.2474976 2.5452576c2.8357239 0.58306885 6.731842 1.1653137 11.766846 0.9530945c5.0350037 -0.21224976 13.779236 -1.3786316 18.443146 -2.2265015c4.6639404 -0.8479004 7.420349 -1.4299011 9.540344 -2.8608398c2.119995 -1.4309387 3.4446716 -3.816803 3.179596 -5.724823c-0.2651062 -1.90802 -0.7157593 -3.33844 -4.770172 -5.7232666c-4.0544434 -2.3847961 -15.873077 -7.7641907 -19.556427 -8.585663c-3.6833496 -0.82144165 -2.941162 1.9344482 -2.5436707 3.6569214c0.39752197 1.7224731 3.1003113 4.160431 4.928772 6.6779175c1.8284607 2.5174866 5.406067 6.042267 6.041992 8.4270935c0.6359253 2.3847961 -0.39804077 5.139923 -2.2265015 5.881836c-1.8284607 0.7418823 -5.8556824 0.080078125 -8.744263 -1.4304199c-2.8885803 -1.510498 -6.8647766 -4.5584717 -8.58725 -7.632599c-1.7224731 -3.0741272 -0.26376343 -7.950287 -1.7475586 -10.812164c-1.4838257 -2.8618774 -5.141266 -5.484833 -7.1552734 -6.3591614c-2.013977 -0.8743286 -3.4182434 0.34466553 -4.9287415 1.1132507c-1.510498 0.7685852 -3.81604 1.4314575 -4.134247 3.4983215c-0.3182373 2.066864 3.2850342 5.6170044 2.2249146 8.902832c-1.0601196 3.2858582 -7.154724 9.010162 -8.585663 10.812164" fill-rule="evenodd"/><path stroke="#ffe599" stroke-width="4.0" stroke-linejoin="round" stroke-linecap="butt" d="m240.42468 354.99408c4.107544 -4.451935 16.350647 -25.466278 24.645325 -26.71167c8.294678 -1.2453918 25.255096 14.999268 25.12268 19.239258c-0.13241577 4.2399597 -19.477661 7.870178 -25.917175 6.2005615c-6.439514 -1.6695862 -7.4198303 -12.349335 -12.719925 -16.218231c-5.3000946 -3.8688965 -14.68158 -9.327057 -19.080658 -6.9950867c-4.3990936 2.3319702 -13.037872 16.852844 -7.313843 20.986816c5.724045 4.1340027 31.773636 5.671997 41.658096 3.8171082c9.88446 -1.8548889 19.07959 -12.243378 17.648651 -14.946411c-1.4309387 -2.703064 -24.538544 -3.1534424 -26.234314 -1.2718506c-1.6958008 1.8815918 13.701263 13.038422 16.059662 12.56134c2.3583984 -0.4770813 -0.027770996 -11.342621 -1.9093323 -15.423767c-1.8815918 -4.0811157 -6.3591614 -8.294647 -9.380157 -9.062988c-3.0210266 -0.76834106 -9.673294 1.1669006 -8.74585 4.453003c0.92744446 3.2861023 6.4133606 13.779785 14.310486 15.26358c7.897156 1.4837952 25.122406 -4.5055847 33.07242 -6.3607483c7.9500427 -1.8551636 11.315155 -6.254242 14.627686 -4.770172c3.3125305 1.4840698 10.282501 10.441345 5.2474976 13.674591c-5.0350037 3.2332458 -26.792023 5.7776794 -35.45749 5.724823c-8.665497 -0.052856445 -14.494995 -3.2858276 -16.53543 -6.041992c-2.0404358 -2.7561646 -4.37265 -9.116913 4.2928467 -10.494995c8.665466 -1.3780823 45.792053 5.187988E-4 47.700073 2.2265015c1.90802 2.2259521 -29.070312 10.016327 -36.252014 11.1293335c-7.181671 1.1129761 -11.369568 -3.4179993 -6.8380737 -4.451416c4.531494 -1.0334473 25.573578 -1.6696167 34.0271 -1.749176c8.453491 -0.079559326 18.787537 2.225708 16.69397 1.2718506c-2.0935364 -0.95388794 -21.861938 -5.378601 -29.25531 -6.9950867c-7.393402 -1.6164856 -13.35611 -1.1666565 -15.105011 -2.7038574c-1.7489014 -1.5371704 2.4387512 -9.036835 4.611603 -6.5193176c2.172821 2.5174866 7.4184875 15.900299 8.425476 21.624329c1.007019 5.7240295 -0.36947632 10.599945 -2.383484 12.71991c-2.0140076 2.119995 -6.043335 0.8479004 -9.7005005 0c-3.657196 -0.8478699 -14.601257 -1.4304199 -12.242584 -5.087311c2.3586426 -3.6569214 20.458466 -12.958588 26.3945 -16.854187c5.9360046 -3.8955688 9.221588 -4.7968445 9.221588 -6.5193176c0 -1.7224731 -6.942749 -4.265869 -9.221588 -3.8155212c-2.278839 0.45037842 -5.193329 2.171814 -4.451416 6.517761c0.7418823 4.3459473 7.524994 15.238464 8.902832 19.558014c1.3778076 4.319519 4.0015564 5.908783 -0.6359253 6.3591614c-4.6374817 0.45037842 -19.662933 -2.2791138 -27.188995 -3.6569214c-7.526062 -1.3778381 -15.423492 -2.755127 -17.967407 -4.610016c-2.5439453 -1.8548889 -1.0062256 -6.148224 2.703827 -6.5193176c3.710022 -0.37109375 18.231445 1.9873047 19.556396 4.292816c1.3249817 2.305542 -8.294128 7.791443 -11.606659 9.540344c-3.3125305 1.7489014 -6.5991516 0.68826294 -8.268494 0.9530945c-1.669342 0.26483154 -6.385071 1.5633545 -1.7475891 0.6358948c4.6374817 -0.9274292 22.974152 -4.3988037 29.57251 -6.2005615c6.598358 -1.8017578 9.51416 -5.4050293 10.01767 -4.610016c0.503479 0.79504395 -1.8821106 8.4263 -6.9966736 9.380188c-5.114563 0.9538574 -17.72821 -1.8813477 -23.690674 -3.6569214c-5.962433 -1.7756042 -10.281952 -4.770691 -12.083984 -6.9966736c-1.8020325 -2.2259827 -1.5107727 -3.9743347 1.2718201 -6.3591614c2.7825928 -2.3848267 10.282776 -5.432251 15.423767 -7.949768c5.1409607 -2.5174866 16.111206 -5.0881042 15.42215 -7.155243c-0.6890259 -2.0671082 -14.600983 -3.8694153 -19.556427 -5.2474976c-4.9554443 -1.3780823 -5.485626 -2.2790833 -10.176239 -3.020996c-4.690613 -0.74191284 -18.312073 -2.4109802 -17.967407 -1.4304199c0.34465027 0.9805603 15.07962 6.942749 20.03534 7.313843c4.9556885 0.37106323 5.6708984 -3.9743652 9.698914 -5.0873413c4.0279846 -1.1129761 10.361786 -2.888855 14.469086 -1.5905762c4.1072693 1.2982483 9.088348 4.954651 10.174652 9.380157c1.0863037 4.4255066 -1.0865479 14.1519165 -3.6569214 17.172913c-2.570343 3.020996 -12.401428 0.50271606 -11.765228 0.9530945c0.63616943 0.45037842 10.626862 1.4045105 15.582306 1.7491455c4.9554443 0.34466553 8.108337 -0.10543823 14.15036 0.3187561c6.041992 0.42422485 20.670715 1.7230225 22.101654 2.2265015c1.4309387 0.5035095 -9.30246 0.42367554 -13.515991 0.7944946c-4.213562 0.3708191 -9.989929 0.87405396 -11.765259 1.4304199c-1.7753296 0.55636597 -1.4042358 2.013733 1.1132507 1.9077454c2.5174866 -0.10595703 10.520386 -2.6763306 13.99176 -2.5436401c3.4713745 0.13265991 2.9675903 3.286621 6.836487 3.3397522c3.8688965 0.053100586 12.1633 -1.8020325 16.376831 -3.0210266c4.2135315 -1.2189636 7.817871 -2.172821 8.904419 -4.292816c1.0865479 -2.119995 1.4837952 -7.738037 -2.3850708 -8.4270935c-3.8688965 -0.6890259 -19.715271 2.5970764 -20.828247 4.2928467c-1.1130066 1.6957703 11.1293335 4.7952576 14.15033 5.881836c3.020996 1.0865479 5.0886536 0.23999023 3.975647 0.6374817c-1.1129761 0.39752197 -6.3340454 1.2176514 -10.653564 1.7475891c-4.3195496 0.52993774 -10.493683 2.5714111 -15.26358 1.4320068c-4.769928 -1.1394348 -11.765778 -5.00885 -13.355835 -8.268494c-1.5900574 -3.259674 1.6954956 -8.745575 3.8154907 -11.28952c2.119995 -2.5439148 6.6784363 -4.0800476 8.904419 -3.97406c2.2259827 0.10598755 4.027466 2.3044434 4.451416 4.6099854c0.4239502 2.305542 -0.18527222 6.2550354 -1.9077454 9.223175c-1.7224731 2.9681396 -4.849457 6.8103333 -8.4270935 8.585663c-3.5776367 1.7753296 -11.740143 1.2977295 -13.038666 2.0663147c-1.298523 0.7686157 2.4117737 1.9622192 5.2474976 2.5452576c2.8357239 0.58306885 6.731842 1.1653137 11.766846 0.9530945c5.0350037 -0.21224976 13.779236 -1.3786316 18.443146 -2.2265015c4.6639404 -0.8479004 7.420349 -1.4299011 9.540344 -2.8608398c2.119995 -1.4309387 3.4446716 -3.816803 3.179596 -5.724823c-0.2651062 -1.90802 -0.7157593 -3.33844 -4.770172 -5.7232666c-4.0544434 -2.3847961 -15.873077 -7.7641907 -19.556427 -8.585663c-3.6833496 -0.82144165 -2.941162 1.9344482 -2.5436707 3.6569214c0.39752197 1.7224731 3.1003113 4.160431 4.928772 6.6779175c1.8284607 2.5174866 5.406067 6.042267 6.041992 8.4270935c0.6359253 2.3847961 -0.39804077 5.139923 -2.2265015 5.881836c-1.8284607 0.7418823 -5.8556824 0.080078125 -8.744263 -1.4304199c-2.8885803 -1.510498 -6.8647766 -4.5584717 -8.58725 -7.632599c-1.7224731 -3.0741272 -0.26376343 -7.950287 -1.7475586 -10.812164c-1.4838257 -2.8618774 -5.141266 -5.484833 -7.1552734 -6.3591614c-2.013977 -0.8743286 -3.4182434 0.34466553 -4.9287415 1.1132507c-1.510498 0.7685852 -3.81604 1.4314575 -4.134247 3.4983215c-0.3182373 2.066864 3.2850342 5.6170044 2.2249146 8.902832c-1.0601196 3.2858582 -7.154724 9.010162 -8.585663 10.812164" fill-rule="evenodd"/><path fill="#000000" fill-opacity="0.0" d="m249.32884 343.35712c9.168991 -1.1192322 43.963333 -4.5789185 55.01393 -6.715393c11.050568 -2.1364746 11.130371 -5.1116333 11.28949 -6.1035156c0.15911865 -0.9918823 -7.9764404 -1.6535034 -10.334839 0.15219116c-2.3583984 1.8056946 -5.8823547 7.5535583 -3.8154907 10.681946c2.066864 3.128357 6.1466675 6.384094 16.216644 8.088318c10.070007 1.7042236 39.24765 3.0525208 44.20334 2.1369934c4.955719 -0.91552734 -11.660034 -4.8323364 -14.469086 -7.630188c-2.809021 -2.797821 -4.107544 -7.7323914 -2.3850708 -9.156799c1.7224731 -1.424408 12.084015 -0.8648071 12.71991 0.61035156c0.6359253 1.4751587 -4.346222 5.519043 -8.904419 8.240509c-4.558197 2.7214966 -15.15863 9.563477 -18.444733 8.088318c-3.2861023 -1.4751282 1.510498 -12.767944 -1.2718506 -16.939178c-2.782318 -4.1712646 -13.09021 -10.555359 -15.42215 -8.088318c-2.3319702 2.467041 4.7164917 17.26947 1.4304199 22.890503c-3.2861023 5.6210327 -7.4729614 9.3349 -21.147003 10.835663c-13.674072 1.5007629 -53.18599 3.7392273 -60.89734 -1.8310547c-7.7113495 -5.570282 10.389282 -25.282959 14.629242 -31.590698c4.239975 -6.3077393 10.943268 -8.672028 10.810577 -6.2557373c-0.13265991 2.4162903 -14.442383 16.353455 -11.606659 20.75351c2.8357239 4.4000854 35.749573 3.8156128 28.621002 5.6469116c-7.12854 1.8313293 -57.029236 6.739746 -71.392334 5.340973c-14.363098 -1.3988037 -15.766815 -10.732422 -14.786255 -13.733704c0.98057556 -3.0012817 18.894073 -6.0543213 20.669678 -4.273987c1.775589 1.7803345 -11.897675 10.377502 -10.016083 14.955933c1.8815765 4.5783997 18.23172 13.964294 21.305573 12.514496c3.0738678 -1.4497681 -2.3853455 -14.854431 -2.8624115 -21.213165c-0.47706604 -6.358734 -1.9611359 -14.649994 0 -16.939209c1.9611359 -2.2891846 10.680283 -4.121277 11.76683 3.2039795c1.0865631 7.3252563 -11.71344 34.566864 -5.2474976 40.747528c6.4659424 6.1806335 35.19214 -2.8496094 44.043182 -3.6636658c8.851013 -0.8140564 6.4659424 0.7377014 9.062988 -1.2207031c2.597046 -1.9584045 5.43277 -8.77475 6.5193176 -10.529724" fill-rule="evenodd"/><path stroke="#ffe599" stroke-width="4.0" stroke-linejoin="round" stroke-linecap="butt" d="m249.32884 343.35712c9.168991 -1.1192322 43.963333 -4.5789185 55.01393 -6.715393c11.050568 -2.1364746 11.130371 -5.1116333 11.28949 -6.1035156c0.15911865 -0.9918823 -7.9764404 -1.6535034 -10.334839 0.15219116c-2.3583984 1.8056946 -5.8823547 7.5535583 -3.8154907 10.681946c2.066864 3.128357 6.1466675 6.384094 16.216644 8.088318c10.070007 1.7042236 39.24765 3.0525208 44.20334 2.1369934c4.955719 -0.91552734 -11.660034 -4.8323364 -14.469086 -7.630188c-2.809021 -2.797821 -4.107544 -7.7323914 -2.3850708 -9.156799c1.7224731 -1.424408 12.084015 -0.8648071 12.71991 0.61035156c0.6359253 1.4751587 -4.346222 5.519043 -8.904419 8.240509c-4.558197 2.7214966 -15.15863 9.563477 -18.444733 8.088318c-3.2861023 -1.4751282 1.510498 -12.767944 -1.2718506 -16.939178c-2.782318 -4.1712646 -13.09021 -10.555359 -15.42215 -8.088318c-2.3319702 2.467041 4.7164917 17.26947 1.4304199 22.890503c-3.2861023 5.6210327 -7.4729614 9.3349 -21.147003 10.835663c-13.674072 1.5007629 -53.18599 3.7392273 -60.89734 -1.8310547c-7.7113495 -5.570282 10.389282 -25.282959 14.629242 -31.590698c4.239975 -6.3077393 10.943268 -8.672028 10.810577 -6.2557373c-0.13265991 2.4162903 -14.442383 16.353455 -11.606659 20.75351c2.8357239 4.4000854 35.749573 3.8156128 28.621002 5.6469116c-7.12854 1.8313293 -57.029236 6.739746 -71.392334 5.340973c-14.363098 -1.3988037 -15.766815 -10.732422 -14.786255 -13.733704c0.98057556 -3.0012817 18.894073 -6.0543213 20.669678 -4.273987c1.775589 1.7803345 -11.897675 10.377502 -10.016083 14.955933c1.8815765 4.5783997 18.23172 13.964294 21.305573 12.514496c3.0738678 -1.4497681 -2.3853455 -14.854431 -2.8624115 -21.213165c-0.47706604 -6.358734 -1.9611359 -14.649994 0 -16.939209c1.9611359 -2.2891846 10.680283 -4.121277 11.76683 3.2039795c1.0865631 7.3252563 -11.71344 34.566864 -5.2474976 40.747528c6.4659424 6.1806335 35.19214 -2.8496094 44.043182 -3.6636658c8.851013 -0.8140564 6.4659424 0.7377014 9.062988 -1.2207031c2.597046 -1.9584045 5.43277 -8.77475 6.5193176 -10.529724" fill-rule="evenodd"/><path fill="#000000" fill-opacity="0.0" d="m154.02382 348.85767c4.6110687 -3.4449463 15.370102 -20.457703 27.666336 -20.669678c12.296234 -0.2119751 42.824997 15.369843 46.111084 19.397827c3.2861023 4.028015 -18.391357 5.30011 -26.3945 4.770172c-8.003128 -0.52993774 -23.903427 -5.5646667 -21.624329 -7.9497375c2.2790985 -2.3851013 23.956818 -5.3006287 35.29892 -6.3607483c11.342102 -1.0601501 24.962769 -3.7631836 32.753662 0c7.790909 3.763153 7.949753 24.698975 13.99176 22.57898c6.041992 -2.1199646 20.352234 -28.779846 22.260254 -35.29892c1.9079895 -6.5190735 -5.0350037 -2.8616028 -10.812164 -3.8154907c-5.777191 -0.9538574 -21.359787 -4.769623 -23.850845 -1.9077454c-2.4910736 2.8618774 3.127243 13.93808 8.904404 19.079071c5.777191 5.140991 14.999542 12.985809 25.758606 11.766846c10.759033 -1.2189636 25.068726 -18.285645 38.795654 -19.080658c13.726929 -0.79504395 35.986908 12.720428 43.565826 14.310486c7.578949 1.5900574 3.232727 -5.5651855 1.9077454 -4.770172c-1.3249512 0.79504395 -9.274445 7.8974304 -9.857483 9.540344c-0.58306885 1.6429138 3.815216 1.1121826 6.3591614 0.3171692c2.5439148 -0.79504395 7.791443 -3.2324524 8.904419 -5.0873413c1.1129761 -1.8548889 0.37054443 -4.5579224 -2.2265015 -6.041992c-2.597046 -1.4840698 -14.521942 -4.0813904 -13.355835 -2.8624268c1.1661072 1.2189636 21.412354 8.162262 20.352509 10.17627c-1.0598755 2.013977 -20.13974 1.4837952 -26.71167 1.9077454c-6.57193 0.42391968 -10.599945 0.5299072 -12.71991 0.6358948" fill-rule="evenodd"/><path stroke="#ffe599" stroke-width="4.0" stroke-linejoin="round" stroke-linecap="butt" d="m154.02382 348.85767c4.6110687 -3.4449463 15.370102 -20.457703 27.666336 -20.669678c12.296234 -0.2119751 42.824997 15.369843 46.111084 19.397827c3.2861023 4.028015 -18.391357 5.30011 -26.3945 4.770172c-8.003128 -0.52993774 -23.903427 -5.5646667 -21.624329 -7.9497375c2.2790985 -2.3851013 23.956818 -5.3006287 35.29892 -6.3607483c11.342102 -1.0601501 24.962769 -3.7631836 32.753662 0c7.790909 3.763153 7.949753 24.698975 13.99176 22.57898c6.041992 -2.1199646 20.352234 -28.779846 22.260254 -35.29892c1.9079895 -6.5190735 -5.0350037 -2.8616028 -10.812164 -3.8154907c-5.777191 -0.9538574 -21.359787 -4.769623 -23.850845 -1.9077454c-2.4910736 2.8618774 3.127243 13.93808 8.904404 19.079071c5.777191 5.140991 14.999542 12.985809 25.758606 11.766846c10.759033 -1.2189636 25.068726 -18.285645 38.795654 -19.080658c13.726929 -0.79504395 35.986908 12.720428 43.565826 14.310486c7.578949 1.5900574 3.232727 -5.5651855 1.9077454 -4.770172c-1.3249512 0.79504395 -9.274445 7.8974304 -9.857483 9.540344c-0.58306885 1.6429138 3.815216 1.1121826 6.3591614 0.3171692c2.5439148 -0.79504395 7.791443 -3.2324524 8.904419 -5.0873413c1.1129761 -1.8548889 0.37054443 -4.5579224 -2.2265015 -6.041992c-2.597046 -1.4840698 -14.521942 -4.0813904 -13.355835 -2.8624268c1.1661072 1.2189636 21.412354 8.162262 20.352509 10.17627c-1.0598755 2.013977 -20.13974 1.4837952 -26.71167 1.9077454c-6.57193 0.42391968 -10.599945 0.5299072 -12.71991 0.6358948" fill-rule="evenodd"/><path fill="#e69138" d="m86.59278 347.70023l0 0c-0.18392944 -0.8373108 0.34574127 -1.6651611 1.1830521 -1.8490906l6.0641403 -1.3320923l0 0c0.40209198 -0.08831787 0.8227997 -0.013305664 1.1695709 0.20855713c0.34677887 0.2218628 0.59121704 0.5723877 0.67954254 0.9744873l1.332077 6.064148c0.18392944 0.8373108 -0.34574127 1.6651917 -1.1830521 1.8491211l-6.0641403 1.3320618c-0.83730316 0.18392944 -1.665184 -0.34573364 -1.8491058 -1.1830444z" fill-rule="evenodd"/><path fill="#e69138" d="m160.17282 346.69635l0 0c0.1085968 -1.0580139 1.0543365 -1.8276672 2.1123657 -1.7190552l7.662628 0.78656006l0 0c0.50808716 0.05215454 0.9746399 0.3039856 1.2970276 0.7001343c0.3223877 0.39614868 0.4741974 0.9041443 0.42204285 1.4122314l-0.78656006 7.662628c-0.1085968 1.0580139 -1.0543365 1.8276672 -2.1123657 1.7190857l-7.662628 -0.7865906c-1.0580292 -0.10858154 -1.8276825 -1.0543213 -1.7190704 -2.1123352z" fill-rule="evenodd"/><path fill="#e69138" d="m204.21365 337.4368l0 0c-0.22071838 -1.0054626 0.41545105 -1.9994812 1.420929 -2.2201843l7.2820435 -1.5985107l0 0c0.48283386 -0.10598755 0.9880066 -0.015838623 1.4043732 0.25064087c0.41638184 0.2664795 0.70983887 0.68743896 0.8158264 1.1702881l1.5984955 7.2820435c0.22071838 1.0054626 -0.4154663 1.9994812 -1.420929 2.2202148l-7.2820435 1.5984802c-1.0054779 0.22073364 -1.9994965 -0.4154358 -2.2201996 -1.420929z" fill-rule="evenodd"/><path fill="#e69138" d="m277.4153 337.84048l0 0c0.63760376 -0.85131836 1.844635 -1.0245667 2.6959534 -0.3869629l6.165619 4.6178894l0 0c0.408844 0.30618286 0.67926025 0.76223755 0.75183105 1.2678223c0.0725708 0.50561523 -0.058685303 1.0193176 -0.36486816 1.4281311l-4.6178894 6.165619c-0.63760376 0.8513489 -1.844635 1.0245667 -2.6959534 0.3869629l-6.165619 -4.6178894c-0.85131836 -0.63760376 -1.0245667 -1.844635 -0.3869629 -2.6959534z" fill-rule="evenodd"/><path fill="#e69138" d="m218.5323 355.64227l0 0c-0.90737915 -0.55526733 -1.1927948 -1.7409973 -0.6375122 -2.6483765l4.0216064 -6.571594l0 0c0.2666626 -0.43572998 0.6954956 -0.7477112 1.1921692 -0.86724854c0.49665833 -0.11956787 1.0204773 -0.03692627 1.4562225 0.22973633l6.571594 4.0216064c0.90737915 0.55529785 1.19281 1.7409973 0.6375122 2.6483765l-4.0216064 6.571594c-0.5552826 0.90737915 -1.7410126 1.19281 -2.6483917 0.6375427z" fill-rule="evenodd"/><path fill="#e69138" d="m310.56924 353.02487l0 0c0.15765381 -1.0037231 1.0991516 -1.6896057 2.1028748 -1.5319519l7.269348 1.1417847l0 0c0.48199463 0.07571411 0.9141846 0.3397827 1.201477 0.7341614c0.28729248 0.39434814 0.40615845 0.88668823 0.33044434 1.3686829l-1.1417847 7.269348c-0.15762329 1.0037231 -1.0991211 1.6896057 -2.1028442 1.5319519l-7.269348 -1.1417847c-1.0037231 -0.15765381 -1.6895752 -1.0991211 -1.5319519 -2.1028442z" fill-rule="evenodd"/><path fill="#e69138" d="m337.6982 340.15067l0 0c0.96517944 -0.4484253 2.111145 -0.029510498 2.5596008 0.93566895l3.2477417 6.9902344l0 0c0.21533203 0.46350098 0.23773193 0.9935608 0.06225586 1.4735718c-0.17547607 0.480011 -0.5344238 0.8706665 -0.9979248 1.0859985l-6.990265 3.2477417c-0.96517944 0.4484558 -2.111145 0.029541016 -2.5595703 -0.9356384l-3.2477417 -6.990265c-0.4484253 -0.96517944 -0.029510498 -2.111145 0.93566895 -2.5595703z" fill-rule="evenodd"/><path fill="#6aa84f" d="m113.45861 336.93625l27.422112 6.4511414l-0.5518646 2.3977966l-27.42212 -6.4511414z" fill-rule="evenodd"/><path fill="#6aa84f" d="m149.61415 359.093l19.258286 -4.3959045l1.1798553 5.1380615l-19.258286 4.3959045z" fill-rule="evenodd"/><path fill="#6aa84f" d="m308.0315 342.66666l19.25827 -4.395935l0.3996277 1.7698059l-19.25827 4.3959045z" fill-rule="evenodd"/><path fill="#6aa84f" d="m277.98056 361.2507l-5.9373474 -14.253418l3.8059998 -1.5985107l5.937317 14.253387z" fill-rule="evenodd"/><path fill="#6aa84f" d="m240.83575 357.53305l19.296356 4.22464l-1.1227722 5.1571045l-19.29634 -4.22464z" fill-rule="evenodd"/><path fill="#f6f12d" d="m176.48546 357.07025l0 0c-0.14888 -0.9774475 0.5227814 -1.8905334 1.5002289 -2.0393982l7.079056 -1.0783691l0 0c0.46939087 -0.071502686 0.9479523 0.04638672 1.3304138 0.32772827c0.38246155 0.28134155 0.63749695 0.703125 0.70899963 1.1724854l1.0783539 7.079071c0.14889526 0.9774475 -0.5227814 1.8905334 -1.5002136 2.0394287l-7.079071 1.0783386c-0.97743225 0.14889526 -1.8905182 -0.5227661 -2.0394135 -1.5002136z" fill-rule="evenodd"/><path fill="#f6f12d" d="m242.2016 341.23273l0 0c0.09458923 -0.9178772 0.9153595 -1.5852966 1.833252 -1.4906921l6.6477203 0.6850586l0 0c0.44078064 0.045440674 0.84547424 0.26409912 1.1250305 0.60787964c0.27955627 0.34381104 0.4111023 0.7845764 0.36567688 1.2253723l-0.68507385 6.6477356c-0.09458923 0.9178772 -0.9153595 1.5852966 -1.833252 1.4906921l-6.6477203 -0.6850586c-0.9178772 -0.09460449 -1.5852966 -0.91537476 -1.4907074 -1.833252z" fill-rule="evenodd"/><path fill="#f6f12d" d="m225.78145 331.97046l0 0c-0.21195984 -0.8986206 0.34469604 -1.7989197 1.2433167 -2.0108643l6.5081635 -1.5350647l0 0c0.4315338 -0.10177612 0.8858185 -0.02798462 1.2629395 0.2052002c0.3771057 0.2331543 0.6461487 0.6065979 0.7479248 1.0381165l1.5350647 6.5081787c0.21195984 0.8986206 -0.34469604 1.7989197 -1.2433014 2.0108643l-6.5081787 1.5350647c-0.8986206 0.21194458 -1.7989044 -0.34469604 -2.0108643 -1.2433167z" fill-rule="evenodd"/><path fill="#f6f12d" d="m118.84013 349.48697l0 0c0.09458923 -0.9179077 0.9153671 -1.5852966 1.833252 -1.4907227l6.6477203 0.6850891l0 0c0.44078064 0.045410156 0.84547424 0.2640686 1.1250305 0.60787964c0.27955627 0.34381104 0.4111023 0.7845764 0.36567688 1.2253723l-0.68507385 6.647705c-0.09458923 0.9178772 -0.9153671 1.5852966 -1.833252 1.4907227l-6.6477203 -0.6850891c-0.9178848 -0.094573975 -1.5852966 -0.91537476 -1.4906998 -1.833252z" fill-rule="evenodd"/><path fill="#f6f12d" d="m282.887 355.72824l0 0c-0.4466858 -1.0212402 0.019073486 -2.2112427 1.0403137 -2.657898l7.39624 -3.235077l0 0c0.49041748 -0.21450806 1.0459595 -0.22540283 1.5444031 -0.030303955c0.4984436 0.19509888 0.8989868 0.5802307 1.1134949 1.0706482l3.2350464 7.3962097c0.4466858 1.0212402 -0.019073486 2.2112122 -1.0403137 2.657898l-7.39624 3.2350464c-1.0212402 0.4466858 -2.2112122 -0.019073486 -2.657898 -1.0403137z" fill-rule="evenodd"/><path fill="#000000" fill-opacity="0.0" d="m88.75253 536.87744c0.42394257 -6.7841797 -2.7564316 -33.284912 2.543663 -40.704987c5.300102 -7.4200745 23.956825 -11.023621 29.25692 -3.8154907c5.300102 7.2080994 -1.5903168 39.32614 2.5436707 47.06418c4.13398 7.738037 18.444214 2.119995 22.260254 -0.6359253c3.8160248 -2.7559204 -3.7100525 -12.825378 0.63591003 -15.899536c4.3459625 -3.0740967 20.245987 -5.9370728 25.439835 -2.545227c5.1938477 3.3918457 -0.8486786 19.50409 5.7232513 22.89618c6.57193 3.3920898 28.726196 3.392334 33.70833 -2.5437012c4.982147 -5.935974 -1.6955109 -29.998535 -3.8154907 -33.072388c-2.119995 -3.0738525 -8.056274 9.965088 -8.904419 14.629272c-0.8481598 4.6641846 6.359421 11.341797 3.8154907 13.355835c-2.54393 2.013977 -16.111206 3.0740967 -19.079086 -1.2718506c-2.967865 -4.3459473 7.7377777 -20.77594 1.2718353 -24.803925c-6.4659424 -4.028015 -33.071625 4.0279846 -40.06749 0.6359253c-6.99588 -3.3920898 -15.157608 -17.384369 -1.9077606 -20.988434c13.249847 -3.604065 67.73305 -9.009857 81.406845 -0.6359253c13.673782 8.373962 -4.558197 41.763794 0.63591003 50.8797c5.194107 9.115845 25.016678 11.659485 30.528748 3.8154907c5.5120697 -7.844055 -0.31822205 -41.763824 2.5436554 -50.87967c2.861908 -9.115875 11.977753 -5.8294983 14.627686 -3.8155212c2.6499023 2.0140076 -4.346222 13.355591 1.2718201 15.899506c5.6180725 2.5439453 27.242401 -2.75589 32.436523 -0.6358948c5.194092 2.1199646 4.7701416 11.023865 -1.2718506 13.355835c-6.041992 2.3319702 -29.044159 -3.81604 -34.980164 0.6359253c-5.9360046 4.4519043 -4.875885 21.199585 -0.6359253 26.075745c4.23999 4.8761597 17.701813 2.2269897 26.075745 3.1811523c8.373962 0.9541626 19.50409 11.023865 24.168 2.5436401c4.6639404 -8.480164 1.5895386 -43.67285 3.8155212 -53.424896c2.2259521 -9.752045 8.162231 -14.097473 9.540314 -5.0873413c1.3780823 9.010162 -1.059845 49.29013 -1.2718201 59.148163" fill-rule="evenodd"/><path stroke="#ff571b" stroke-width="8.0" stroke-linejoin="round" stroke-linecap="butt" d="m88.75253 536.87744c0.42394257 -6.7841797 -2.7564316 -33.284912 2.543663 -40.704987c5.300102 -7.4200745 23.956825 -11.023621 29.25692 -3.8154907c5.300102 7.2080994 -1.5903168 39.32614 2.5436707 47.06418c4.13398 7.738037 18.444214 2.119995 22.260254 -0.6359253c3.8160248 -2.7559204 -3.7100525 -12.825378 0.63591003 -15.899536c4.3459625 -3.0740967 20.245987 -5.9370728 25.439835 -2.545227c5.1938477 3.3918457 -0.8486786 19.50409 5.7232513 22.89618c6.57193 3.3920898 28.726196 3.392334 33.70833 -2.5437012c4.982147 -5.935974 -1.6955109 -29.998535 -3.8154907 -33.072388c-2.119995 -3.0738525 -8.056274 9.965088 -8.904419 14.629272c-0.8481598 4.6641846 6.359421 11.341797 3.8154907 13.355835c-2.54393 2.013977 -16.111206 3.0740967 -19.079086 -1.2718506c-2.967865 -4.3459473 7.7377777 -20.77594 1.2718353 -24.803925c-6.4659424 -4.028015 -33.071625 4.0279846 -40.06749 0.6359253c-6.99588 -3.3920898 -15.157608 -17.384369 -1.9077606 -20.988434c13.249847 -3.604065 67.73305 -9.009857 81.406845 -0.6359253c13.673782 8.373962 -4.558197 41.763794 0.63591003 50.8797c5.194107 9.115845 25.016678 11.659485 30.528748 3.8154907c5.5120697 -7.844055 -0.31822205 -41.763824 2.5436554 -50.87967c2.861908 -9.115875 11.977753 -5.8294983 14.627686 -3.8155212c2.6499023 2.0140076 -4.346222 13.355591 1.2718201 15.899506c5.6180725 2.5439453 27.242401 -2.75589 32.436523 -0.6358948c5.194092 2.1199646 4.7701416 11.023865 -1.2718506 13.355835c-6.041992 2.3319702 -29.044159 -3.81604 -34.980164 0.6359253c-5.9360046 4.4519043 -4.875885 21.199585 -0.6359253 26.075745c4.23999 4.8761597 17.701813 2.2269897 26.075745 3.1811523c8.373962 0.9541626 19.50409 11.023865 24.168 2.5436401c4.6639404 -8.480164 1.5895386 -43.67285 3.8155212 -53.424896c2.2259521 -9.752045 8.162231 -14.097473 9.540314 -5.0873413c1.3780823 9.010162 -1.059845 49.29013 -1.2718201 59.148163" fill-rule="evenodd"/><path fill="#000000" fill-opacity="0.0" d="m125.249794 428.22876c10.493935 0 51.621834 -1.8020325 62.96366 0c11.341843 1.8020325 9.327301 8.798157 5.0873413 10.812164c-4.239975 2.0140076 -24.80339 -4.346222 -30.527176 1.2718201c-5.72377 5.6180725 -8.903351 27.030426 -3.8154907 32.436523c5.08786 5.406067 26.922836 7.3138123 34.342667 0c7.419815 -7.313843 6.041992 -36.03897 10.176239 -43.882996c4.134262 -7.844055 13.145187 -10.601013 14.629257 -3.1811829c1.4840698 7.4198303 -12.296768 39.007904 -5.7248383 47.700073c6.57193 8.6922 37.41838 5.5128784 45.156418 4.453003c7.738037 -1.059845 6.4659424 -9.010132 1.2718201 -10.812164c-5.194092 -1.8020325 -26.818436 2.5441895 -32.436493 0c-5.618042 -2.5441895 -9.645782 -12.61499 -1.2718201 -15.265167c8.373947 -2.650177 43.035645 -5.194092 51.515564 -0.6359253c8.47995 4.558197 -3.2860718 23.42691 -0.6358948 27.985107c2.650177 4.558197 13.250885 8.162231 16.536987 -0.6359253c3.2861023 -8.798157 2.6496582 -43.460907 3.179596 -52.153076" fill-rule="evenodd"/><path stroke="#ff571b" stroke-width="8.0" stroke-linejoin="round" stroke-linecap="butt" d="m125.249794 428.22876c10.493935 0 51.621834 -1.8020325 62.96366 0c11.341843 1.8020325 9.327301 8.798157 5.0873413 10.812164c-4.239975 2.0140076 -24.80339 -4.346222 -30.527176 1.2718201c-5.72377 5.6180725 -8.903351 27.030426 -3.8154907 32.436523c5.08786 5.406067 26.922836 7.3138123 34.342667 0c7.419815 -7.313843 6.041992 -36.03897 10.176239 -43.882996c4.134262 -7.844055 13.145187 -10.601013 14.629257 -3.1811829c1.4840698 7.4198303 -12.296768 39.007904 -5.7248383 47.700073c6.57193 8.6922 37.41838 5.5128784 45.156418 4.453003c7.738037 -1.059845 6.4659424 -9.010132 1.2718201 -10.812164c-5.194092 -1.8020325 -26.818436 2.5441895 -32.436493 0c-5.618042 -2.5441895 -9.645782 -12.61499 -1.2718201 -15.265167c8.373947 -2.650177 43.035645 -5.194092 51.515564 -0.6359253c8.47995 4.558197 -3.2860718 23.42691 -0.6358948 27.985107c2.650177 4.558197 13.250885 8.162231 16.536987 -0.6359253c3.2861023 -8.798157 2.6496582 -43.460907 3.179596 -52.153076" fill-rule="evenodd"/><path fill="#ffe599" d="m31.761677 354.9627c18.819672 4.23999 71.74347 29.89206 114.78934 35.61609c43.045868 5.72406 100.64795 4.6641846 143.48589 -1.2718201c42.83795 -5.936035 98.569214 -31.588348 113.54181 -34.34427c14.972565 -2.75589 -10.605408 11.660858 -23.70642 17.808838c-13.100983 6.1479797 -22.25116 13.673279 -54.899567 19.079102c-32.648407 5.405792 -108.34241 12.08371 -140.99081 13.355835c-32.64839 1.2720947 -29.84143 0.9546509 -54.899582 -5.7232666c-25.058151 -6.6779175 -79.229225 -26.924164 -95.44933 -34.34424c-16.220106 -7.420105 -20.69098 -14.416229 -1.8713112 -10.17627z" fill-rule="evenodd"/><path fill="#ffe599" d="m75.96256 668.0025c5.3000946 -0.52996826 20.777237 7.102112 38.79725 10.1762085c18.02002 3.0741577 50.03099 6.996399 69.32283 8.268494c19.291855 1.2720947 25.65207 0.3182373 46.428253 -0.63586426c20.776184 -0.9541626 58.724762 -2.968933 78.22882 -5.088928c19.50409 -2.119995 31.693817 -7.9492188 38.795685 -7.6310425c7.1018677 0.3182373 10.8116455 6.890442 3.8154907 9.540344c-6.9961243 2.6499023 -29.468353 5.4053345 -45.792328 6.359192c-16.323975 0.9538574 -36.67569 -1.3778076 -52.151505 -0.6359253c-15.475815 0.7418823 -28.725403 4.663391 -40.703415 5.0873413c-11.978012 0.4239502 -18.76271 -1.2718506 -31.164673 -2.5437012c-12.401947 -1.2717896 -32.329193 -4.769348 -43.24707 -5.0872803c-10.917892 -0.31799316 -13.038147 3.921692 -22.260254 3.1795654c-9.222115 -0.7421875 -26.394241 -4.1345215 -33.07242 -7.6325684c-6.6781845 -3.498108 -12.296768 -12.825928 -6.996666 -13.355835z" fill-rule="evenodd"/></g></svg>