<svg version="1.1" viewBox="0.0 0.0 1280.0 1280.0" fill="none" stroke="none" stroke-linecap="square" stroke-miterlimit="10" xmlns:xlink="http://www.w3.org/1999/xlink" xmlns="http://www.w3.org/2000/svg"><clipPath id="p.0"><path d="m0 0l1280.0 0l0 1280.0l-1280.0 0l0 -1280.0z" clip-rule="nonzero"/></clipPath><g clip-path="url(#p.0)"><path fill="#000000" fill-opacity="0.0" d="m0 0l1280.0 0l0 1280.0l-1280.0 0z" fill-rule="evenodd"/><path fill="#d4d4d4" d="m341.57874 322.7034l0 0c0 -142.48076 133.60953 -257.98425 298.42523 -257.98425l0 0c164.81567 0 298.42517 115.50348 298.42517 257.98425l0 0c0 142.48077 -133.6095 257.98428 -298.42517 257.98428l0 0c-164.8157 0 -298.42523 -115.50351 -298.42523 -257.98428z" fill-rule="evenodd"/><path stroke="#efefef" stroke-width="1.0" stroke-linejoin="round" stroke-linecap="butt" d="m341.57874 322.7034l0 0c0 -142.48076 133.60953 -257.98425 298.42523 -257.98425l0 0c164.81567 0 298.42517 115.50348 298.42517 257.98425l0 0c0 142.48077 -133.6095 257.98428 -298.42517 257.98428l0 0c-164.8157 0 -298.42523 -115.50351 -298.42523 -257.98428z" fill-rule="evenodd"/><path fill="#000000" fill-opacity="0.0" d="m425.7047 322.7034l0 0c0 -102.324875 95.94507 -185.27557 214.29926 -185.27557l0 0c118.35419 0 214.2992 82.9507 214.2992 185.27557l0 0c0 102.32489 -95.94501 185.2756 -214.2992 185.2756l0 0c-118.35419 0 -214.29926 -82.950714 -214.29926 -185.2756z" fill-rule="evenodd"/><path stroke="#666666" stroke-width="16.0" stroke-linejoin="round" stroke-linecap="butt" d="m425.7047 322.7034l0 0c0 -102.324875 95.94507 -185.27557 214.29926 -185.27557l0 0c118.35419 0 214.2992 82.9507 214.2992 185.27557l0 0c0 102.32489 -95.94501 185.2756 -214.2992 185.2756l0 0c-118.35419 0 -214.29926 -82.950714 -214.29926 -185.2756z" fill-rule="evenodd"/><path fill="#000000" fill-opacity="0.0" d="m639.98816 137.42783l0 0c87.89038 0 166.87036 46.3974 199.23792 117.04382c32.367554 70.64642 11.559753 151.21753 -52.49054 203.25168l-146.74738 -135.01993z" fill-rule="evenodd"/><path fill="#000000" fill-opacity="0.0" d="m639.98816 137.42783l0 0c87.89038 0 166.87036 46.3974 199.23792 117.04382c32.367554 70.64642 11.559753 151.21753 -52.49054 203.25168" fill-rule="evenodd"/><path stroke="#ff9f0a" stroke-width="16.0" stroke-linejoin="round" stroke-linecap="butt" d="m639.98816 137.42783l0 0c87.89038 0 166.87036 46.3974 199.23792 117.04382c32.367554 70.64642 11.559753 151.21753 -52.49054 203.25168" fill-rule="evenodd"/><defs><linearGradient id="p.1" gradientUnits="userSpaceOnUse" gradientTransform="matrix(7.456017140634002 0.0 0.0 7.456017140634002 0.0 0.0)" spreadMethod="pad" x1="54.92727634420877" y1="161.05168633721254" x2="54.92724884259638" y2="168.50770347779584"><stop offset="0.0" stop-color="#fcfcf2"/><stop offset="0.81" stop-color="#fcfcf2"/><stop offset="1.0" stop-color="#f3f3f3"/></linearGradient></defs><path fill="url(#p.1)" d="m870.1337 1231.4296c-51.067932 15.583984 -137.5672 24.962524 -230.26947 24.966797c-92.70227 0.0041503906 -179.22256 -9.366577 -230.32553 -24.9458l230.26309 -30.644775z" fill-rule="evenodd"/><path fill="#000000" fill-opacity="0.0" d="m870.1337 1231.4296c-51.067932 15.583984 -137.5672 24.962524 -230.26947 24.966797c-92.70227 0.0041503906 -179.22256 -9.366577 -230.32553 -24.9458" fill-rule="evenodd"/><path stroke="#efefef" stroke-width="1.0" stroke-linejoin="round" stroke-linecap="butt" d="m870.1337 1231.4296c-51.067932 15.583984 -137.5672 24.962524 -230.26947 24.966797c-92.70227 0.0041503906 -179.22256 -9.366577 -230.32553 -24.9458" fill-rule="evenodd"/><path fill="#fcfcf2" d="m326.3819 604.68506l634.61414 0l0 370.55115l-634.61414 0z" fill-rule="evenodd"/><path fill="#f3f3f3" d="m322.69684 608.53284l0 0c0 -40.20807 142.06323 -72.80316 317.30713 -72.80316l0 0c175.24384 0 317.30707 32.595093 317.30707 72.80316l0 0c0 40.20807 -142.06323 72.8031 -317.30707 72.8031l0 0c-175.2439 0 -317.30713 -32.59503 -317.30713 -72.8031z" fill-rule="evenodd"/><path stroke="#efefef" stroke-width="1.0" stroke-linejoin="round" stroke-linecap="butt" d="m322.69684 608.53284l0 0c0 -40.20807 142.06323 -72.80316 317.30713 -72.80316l0 0c175.24384 0 317.30707 32.595093 317.30707 72.80316l0 0c0 40.20807 -142.06323 72.8031 -317.30707 72.8031l0 0c-175.2439 0 -317.30713 -32.59503 -317.30713 -72.8031z" fill-rule="evenodd"/><path fill="#fcfcf2" d="m370.85696 970.31494l537.8898 0l0 131.59058l-537.8898 0z" fill-rule="evenodd"/><path fill="#fcfcf2" d="m390.19815 1091.3544l19.289337 140.0315l145.5611 0l-19.289368 -140.0315z" fill-rule="evenodd"/><path fill="#fcfcf2" d="m728.64435 1231.3859l19.262756 -140.0315l141.8396 0l-19.262695 140.0315z" fill-rule="evenodd"/><path fill="#fcfcf2" d="m518.5656 1075.5801l241.95276 0l0 145.60632l-241.95276 0z" fill-rule="evenodd"/><path fill="#fcfcf2" d="m388.3635 1091.4645l16.220459 -2.2363281l17.606323 128.6615l-16.22049 2.236206z" fill-rule="evenodd"/><path fill="#fcfcf2" d="m889.5867 1099.8739l-16.22052 -2.236206l-16.472412 120.25195l16.220459 2.236206z" fill-rule="evenodd"/><defs><linearGradient id="p.2" gradientUnits="userSpaceOnUse" gradientTransform="matrix(-11.215677447524522 0.0 0.0 11.215677447524522 0.0 0.0)" spreadMethod="pad" x1="-77.61070296155067" y1="53.91426796992476" x2="-88.8263804087867" y2="53.91418752619094"><stop offset="0.0" stop-color="#fcfcf2"/><stop offset="0.81" stop-color="#fcfcf2"/><stop offset="1.0" stop-color="#f3f3f3"/></linearGradient></defs><path fill="url(#p.2)" d="m956.9074 604.68506c6.507019 32.55249 37.029724 128.0061 39.041992 195.31494c2.012268 67.30884 -6.053772 136.6413 -26.968506 208.53809c-20.914673 71.89673 -82.09973 185.70203 -98.51965 222.84253" fill-rule="evenodd"/><path stroke="#efefef" stroke-width="1.0" stroke-linejoin="round" stroke-linecap="butt" d="m956.9074 604.68506c6.507019 32.55249 37.029724 128.0061 39.041992 195.31494c2.012268 67.30884 -6.053772 136.6413 -26.968506 208.53809c-20.914673 71.89673 -82.09973 185.70203 -98.51965 222.84253" fill-rule="evenodd"/><defs><linearGradient id="p.3" gradientUnits="userSpaceOnUse" gradientTransform="matrix(11.215674705124169 0.0 0.0 11.215674705124169 0.0 0.0)" spreadMethod="pad" x1="36.51536863885373" y1="53.914281152770315" x2="25.29969393401805" y2="53.91420070901683"><stop offset="0.0" stop-color="#fcfcf2"/><stop offset="0.81" stop-color="#fcfcf2"/><stop offset="1.0" stop-color="#f3f3f3"/></linearGradient></defs><path fill="url(#p.3)" d="m323.09375 604.68506c-6.5069885 32.55249 -37.029724 128.0061 -39.041992 195.31494c-2.0122375 67.30884 6.0538025 136.6413 26.968506 208.53809c20.914703 71.89673 82.09973 185.70203 98.519684 222.84253" fill-rule="evenodd"/><path stroke="#efefef" stroke-width="1.0" stroke-linejoin="round" stroke-linecap="butt" d="m323.09375 604.68506c-6.5069885 32.55249 -37.029724 128.0061 -39.041992 195.31494c-2.0122375 67.30884 6.0538025 136.6413 26.968506 208.53809c20.914703 71.89673 82.09973 185.70203 98.519684 222.84253" fill-rule="evenodd"/><path fill="#ff9f0a" d="m631.88055 137.47507l0 0c0 -4.418274 3.5465088 -8.0 7.9212646 -8.0l0 0c2.100891 0 4.1156616 0.84284973 5.6011963 2.3431396c1.4855347 1.5002899 2.3200684 3.5351257 2.3200684 5.6568604l0 0c0 4.418274 -3.5464478 8.0 -7.9212646 8.0l0 0c-4.374756 0 -7.9212646 -3.581726 -7.9212646 -8.0z" fill-rule="evenodd"/><path fill="#ff9f0a" d="m778.59973 457.91077l0 0c0 -4.418274 3.5464478 -8.0 7.9212646 -8.0l0 0c2.10083 0 4.1156616 0.8428345 5.6011963 2.3431396c1.4855347 1.5003052 2.3200684 3.5351257 2.3200684 5.6568604l0 0c0 4.418274 -3.5464478 8.0 -7.9212646 8.0l0 0c-4.374817 0 -7.9212646 -3.581726 -7.9212646 -8.0z" fill-rule="evenodd"/><path fill="#000000" fill-opacity="0.0" d="m400.99606 651.6183c-1.0529175 -2.5437622 -7.1946716 -11.402893 -6.3175964 -15.262451c0.8770752 -3.8596191 5.7904663 -7.192932 11.580078 -7.8950195c5.7895813 -0.70214844 17.192474 4.7353516 23.15747 3.682373c5.9649963 -1.0529175 15.088806 -10.702087 12.632538 -10.0c-2.4562378 0.70214844 -23.071747 9.914307 -27.370087 14.2126465c-4.29834 4.29834 2.2817383 9.209045 1.5800781 11.577393c-0.7016907 2.3683472 -3.5971375 4.2991943 -5.790039 2.6325684c-2.1929016 -1.666687 -9.560364 -10.439636 -7.367462 -12.632568c2.1929321 -2.1929321 6.928711 -4.647827 20.524933 -0.52490234c13.596252 4.122925 50.438324 24.648682 61.05249 25.262451c10.614197 0.6137085 7.4571533 -17.545044 2.6325684 -21.580078c-4.824585 -4.034973 -25.001312 -6.138672 -31.580078 -2.6298828c-6.5787354 3.508728 -3.7698975 21.489502 -7.8923645 23.682373c-4.1224976 2.1929321 -16.754608 -5.963684 -16.84253 -10.524902c-0.08792114 -4.5612793 23.42038 -15.789612 16.314972 -16.84253c-7.105438 -1.0529175 -49.122925 8.770752 -58.94751 10.524902" fill-rule="evenodd"/><path stroke="#ffe599" stroke-width="4.0" stroke-linejoin="round" stroke-linecap="butt" d="m400.99606 651.6183c-1.0529175 -2.5437622 -7.1946716 -11.402893 -6.3175964 -15.262451c0.8770752 -3.8596191 5.7904663 -7.192932 11.580078 -7.8950195c5.7895813 -0.70214844 17.192474 4.7353516 23.15747 3.682373c5.9649963 -1.0529175 15.088806 -10.702087 12.632538 -10.0c-2.4562378 0.70214844 -23.071747 9.914307 -27.370087 14.2126465c-4.29834 4.29834 2.2817383 9.209045 1.5800781 11.577393c-0.7016907 2.3683472 -3.5971375 4.2991943 -5.790039 2.6325684c-2.1929016 -1.666687 -9.560364 -10.439636 -7.367462 -12.632568c2.1929321 -2.1929321 6.928711 -4.647827 20.524933 -0.52490234c13.596252 4.122925 50.438324 24.648682 61.05249 25.262451c10.614197 0.6137085 7.4571533 -17.545044 2.6325684 -21.580078c-4.824585 -4.034973 -25.001312 -6.138672 -31.580078 -2.6298828c-6.5787354 3.508728 -3.7698975 21.489502 -7.8923645 23.682373c-4.1224976 2.1929321 -16.754608 -5.963684 -16.84253 -10.524902c-0.08792114 -4.5612793 23.42038 -15.789612 16.314972 -16.84253c-7.105438 -1.0529175 -49.122925 8.770752 -58.94751 10.524902" fill-rule="evenodd"/><path fill="#000000" fill-opacity="0.0" d="m379.4134 647.1918c0.21914673 -2.1054077 0.48162842 -9.430847 1.3149414 -12.632507c0.8333435 -3.2016602 2.150055 -5.3495483 3.6850586 -6.5774536c1.5350037 -1.2279053 3.3320007 -3.465454 5.524933 -0.79003906c2.1929016 2.675415 7.807953 13.684631 7.632538 16.84253c-0.17541504 3.157898 -7.0621033 2.7629395 -8.685028 2.1049805c-1.6229248 -0.65789795 -4.29834 -4.692871 -1.0524902 -6.05249c3.245819 -1.3595581 14.3871155 -5.0874634 20.527557 -2.1049805c6.1404114 2.982483 10.2187195 17.894592 16.314941 20.0c6.0962524 2.1054077 13.727478 -7.5428467 20.262482 -7.3674316c6.5350037 0.17541504 17.85083 6.2269897 18.94751 8.419922c1.0966797 2.1929321 -6.7095337 6.798767 -12.367462 4.737549c-5.6579285 -2.0612183 -20.746704 -10.920837 -21.580048 -17.10498c-0.8333435 -6.184204 14.430878 -14.692932 16.580048 -20.0c2.14917 -5.307129 -0.26376343 -9.429993 -3.685028 -11.842529c-3.4212646 -2.4125366 -13.509186 -4.562134 -16.84253 -2.6325684c-3.3333435 1.9295654 -3.1574707 8.332886 -3.1574707 14.210022c0 5.877075 4.209961 15.877075 3.1574707 21.05249c-1.0524902 5.175415 -5.8324585 9.297852 -9.472443 10.0c-3.6399841 0.7020874 -11.57785 -1.3140869 -12.367462 -5.7874146c-0.7895813 -4.4733276 3.7703552 -16.31543 7.629944 -21.05249c3.859558 -4.7371216 9.957123 -7.7209473 15.527557 -7.370117c5.570404 0.35083008 13.070404 5.045105 17.894989 9.475098c4.824585 4.4299927 8.070007 12.719177 11.052521 17.10498c2.982483 4.385803 4.386688 6.227478 6.842499 9.209961c2.4558105 2.982483 5.5240784 8.597534 7.892395 8.685059c2.3683167 0.08746338 2.5455017 -5.660095 6.3175964 -8.160095c3.7720642 -2.5 14.253693 -3.4190674 16.314941 -6.839905c2.0612488 -3.4208374 -2.1054077 -15.0008545 -3.9475098 -13.685059c-1.8420715 1.3158569 -7.5437317 16.316711 -7.1049805 21.580078c0.43875122 5.2633057 6.316284 11.140381 9.737549 10.0c3.4212341 -1.1404419 6.974182 -16.009216 10.790009 -16.84253c3.8158264 -0.833313 9.29837 9.123352 12.105011 11.842529c2.8066406 2.7191162 2.8052979 6.139099 4.7348633 4.472412c1.9296265 -1.666626 6.8425293 -11.753296 6.8425293 -14.472412c0 -2.7191772 -2.3687744 -0.7020874 -6.8425293 -1.8425293c-4.473755 -1.1404419 -16.359985 -6.9295654 -19.99997 -5.0c-3.6399841 1.9295654 -2.103241 12.849487 -1.8399048 16.577393c0.26333618 3.7279663 1.3587036 6.3600464 3.4199524 5.790039c2.0612488 -0.5699463 5.5266724 -7.060791 8.94751 -9.209961c3.4208374 -2.14917 9.823242 -1.447937 11.577454 -3.6850586c1.7541504 -2.2370605 2.3682861 -7.0620728 -1.0525513 -9.737488c-3.4207764 -2.675415 -14.209503 -6.4904175 -19.472412 -6.3150024c-5.262909 0.17541504 -9.999573 4.3412476 -12.10498 7.3674927c-2.1054382 3.026245 -2.062561 7.807495 -0.5275574 10.789978c1.5350037 2.982544 7.4129333 6.183777 9.737518 7.1050415c2.324585 0.92126465 3.5083313 -1.3145752 4.2099915 -1.5774536" fill-rule="evenodd"/><path stroke="#ffe599" stroke-width="4.0" stroke-linejoin="round" stroke-linecap="butt" d="m379.4134 647.1918c0.21914673 -2.1054077 0.48162842 -9.430847 1.3149414 -12.632507c0.8333435 -3.2016602 2.150055 -5.3495483 3.6850586 -6.5774536c1.5350037 -1.2279053 3.3320007 -3.465454 5.524933 -0.79003906c2.1929016 2.675415 7.807953 13.684631 7.632538 16.84253c-0.17541504 3.157898 -7.0621033 2.7629395 -8.685028 2.1049805c-1.6229248 -0.65789795 -4.29834 -4.692871 -1.0524902 -6.05249c3.245819 -1.3595581 14.3871155 -5.0874634 20.527557 -2.1049805c6.1404114 2.982483 10.2187195 17.894592 16.314941 20.0c6.0962524 2.1054077 13.727478 -7.5428467 20.262482 -7.3674316c6.5350037 0.17541504 17.85083 6.2269897 18.94751 8.419922c1.0966797 2.1929321 -6.7095337 6.798767 -12.367462 4.737549c-5.6579285 -2.0612183 -20.746704 -10.920837 -21.580048 -17.10498c-0.8333435 -6.184204 14.430878 -14.692932 16.580048 -20.0c2.14917 -5.307129 -0.26376343 -9.429993 -3.685028 -11.842529c-3.4212646 -2.4125366 -13.509186 -4.562134 -16.84253 -2.6325684c-3.3333435 1.9295654 -3.1574707 8.332886 -3.1574707 14.210022c0 5.877075 4.209961 15.877075 3.1574707 21.05249c-1.0524902 5.175415 -5.8324585 9.297852 -9.472443 10.0c-3.6399841 0.7020874 -11.57785 -1.3140869 -12.367462 -5.7874146c-0.7895813 -4.4733276 3.7703552 -16.31543 7.629944 -21.05249c3.859558 -4.7371216 9.957123 -7.7209473 15.527557 -7.370117c5.570404 0.35083008 13.070404 5.045105 17.894989 9.475098c4.824585 4.4299927 8.070007 12.719177 11.052521 17.10498c2.982483 4.385803 4.386688 6.227478 6.842499 9.209961c2.4558105 2.982483 5.5240784 8.597534 7.892395 8.685059c2.3683167 0.08746338 2.5455017 -5.660095 6.3175964 -8.160095c3.7720642 -2.5 14.253693 -3.4190674 16.314941 -6.839905c2.0612488 -3.4208374 -2.1054077 -15.0008545 -3.9475098 -13.685059c-1.8420715 1.3158569 -7.5437317 16.316711 -7.1049805 21.580078c0.43875122 5.2633057 6.316284 11.140381 9.737549 10.0c3.4212341 -1.1404419 6.974182 -16.009216 10.790009 -16.84253c3.8158264 -0.833313 9.29837 9.123352 12.105011 11.842529c2.8066406 2.7191162 2.8052979 6.139099 4.7348633 4.472412c1.9296265 -1.666626 6.8425293 -11.753296 6.8425293 -14.472412c0 -2.7191772 -2.3687744 -0.7020874 -6.8425293 -1.8425293c-4.473755 -1.1404419 -16.359985 -6.9295654 -19.99997 -5.0c-3.6399841 1.9295654 -2.103241 12.849487 -1.8399048 16.577393c0.26333618 3.7279663 1.3587036 6.3600464 3.4199524 5.790039c2.0612488 -0.5699463 5.5266724 -7.060791 8.94751 -9.209961c3.4208374 -2.14917 9.823242 -1.447937 11.577454 -3.6850586c1.7541504 -2.2370605 2.3682861 -7.0620728 -1.0525513 -9.737488c-3.4207764 -2.675415 -14.209503 -6.4904175 -19.472412 -6.3150024c-5.262909 0.17541504 -9.999573 4.3412476 -12.10498 7.3674927c-2.1054382 3.026245 -2.062561 7.807495 -0.5275574 10.789978c1.5350037 2.982544 7.4129333 6.183777 9.737518 7.1050415c2.324585 0.92126465 3.5083313 -1.3145752 4.2099915 -1.5774536" fill-rule="evenodd"/><path fill="#000000" fill-opacity="0.0" d="m474.40814 644.10675c-2.7191772 -3.0354004 -18.113312 -12.6536255 -16.314972 -18.21228c1.7983398 -5.558655 25.96457 -12.360352 27.10498 -15.139709c1.1404419 -2.779358 -15.964111 -2.7797241 -20.262451 -1.5363159c-4.29834 1.2434082 -7.1062927 5.6688232 -5.5275574 8.996765c1.5787354 3.3278809 8.727905 10.751099 15.0 10.970703c6.2720947 0.21954346 22.32544 -7.9346313 22.632538 -9.653259c0.3070984 -1.718689 -12.368774 -0.36621094 -20.790009 -0.65875244c-8.421265 -0.2925415 -28.597137 -3.3271484 -29.737549 -1.0963745c-1.1404114 2.230713 12.807098 10.933838 22.89502 14.480957c10.087921 3.5471191 30.834198 8.41095 37.632538 6.801697c6.7983704 -1.6092529 3.8153992 -11.885864 3.1574707 -16.457153c-0.65789795 -4.571289 -3.3328857 -9.325378 -7.1049805 -10.970703c-3.7720947 -1.6453247 -14.694214 -0.83966064 -15.527557 1.0986328c-0.8333435 1.9382324 6.5800476 7.4224854 10.527557 10.530823c3.9475098 3.1083374 8.639984 9.362549 13.157501 8.119141c4.517456 -1.2434082 15.35083 -12.105408 13.94751 -15.57959c-1.4033203 -3.4741821 -18.858734 -6.50885 -22.367462 -5.265442c-3.5087585 1.2434082 -1.5796204 10.787659 1.3149414 12.725891c2.8945923 1.9382324 9.254181 0.9515991 16.05252 -1.0964355c6.79834 -2.0480347 24.605835 -9.253479 24.737488 -11.191711c0.13171387 -1.9382935 -21.842041 0.8786621 -23.94751 -0.43774414c-2.1054077 -1.3163452 6.095825 -6.4365845 11.315002 -7.460388c5.2191772 -1.0238647 16.842041 -2.59552 20.0 1.3174438c3.157898 3.9129639 2.0616455 17.55249 -1.0524902 22.160217c-3.1141968 4.607788 -14.913391 6.4005127 -17.632568 5.48645c-2.7191772 -0.91400146 2.5454712 -8.191345 1.3175659 -10.970703c-1.2279053 -2.7792969 -5.0008545 -3.1816406 -8.684998 -5.705261c-3.684204 -2.5236816 -7.630371 -8.229675 -13.419983 -9.436584c-5.7895813 -1.2069702 -15.659637 0.21990967 -21.317566 2.1950073c-5.6579285 1.9750366 -15.261597 6.7298584 -12.629913 9.655457c2.6316528 2.925537 21.57785 3.3267822 28.419952 7.8980713c6.842041 4.57135 11.404602 12.069336 12.632507 19.529785c1.2279053 7.460388 -6.2738037 20.881104 -5.2650757 25.23285c1.0087891 4.3516846 9.431335 0.7312622 11.317566 0.8775635" fill-rule="evenodd"/><path stroke="#ffe599" stroke-width="4.0" stroke-linejoin="round" stroke-linecap="butt" d="m474.40814 644.10675c-2.7191772 -3.0354004 -18.113312 -12.6536255 -16.314972 -18.21228c1.7983398 -5.558655 25.96457 -12.360352 27.10498 -15.139709c1.1404419 -2.779358 -15.964111 -2.7797241 -20.262451 -1.5363159c-4.29834 1.2434082 -7.1062927 5.6688232 -5.5275574 8.996765c1.5787354 3.3278809 8.727905 10.751099 15.0 10.970703c6.2720947 0.21954346 22.32544 -7.9346313 22.632538 -9.653259c0.3070984 -1.718689 -12.368774 -0.36621094 -20.790009 -0.65875244c-8.421265 -0.2925415 -28.597137 -3.3271484 -29.737549 -1.0963745c-1.1404114 2.230713 12.807098 10.933838 22.89502 14.480957c10.087921 3.5471191 30.834198 8.41095 37.632538 6.801697c6.7983704 -1.6092529 3.8153992 -11.885864 3.1574707 -16.457153c-0.65789795 -4.571289 -3.3328857 -9.325378 -7.1049805 -10.970703c-3.7720947 -1.6453247 -14.694214 -0.83966064 -15.527557 1.0986328c-0.8333435 1.9382324 6.5800476 7.4224854 10.527557 10.530823c3.9475098 3.1083374 8.639984 9.362549 13.157501 8.119141c4.517456 -1.2434082 15.35083 -12.105408 13.94751 -15.57959c-1.4033203 -3.4741821 -18.858734 -6.50885 -22.367462 -5.265442c-3.5087585 1.2434082 -1.5796204 10.787659 1.3149414 12.725891c2.8945923 1.9382324 9.254181 0.9515991 16.05252 -1.0964355c6.79834 -2.0480347 24.605835 -9.253479 24.737488 -11.191711c0.13171387 -1.9382935 -21.842041 0.8786621 -23.94751 -0.43774414c-2.1054077 -1.3163452 6.095825 -6.4365845 11.315002 -7.460388c5.2191772 -1.0238647 16.842041 -2.59552 20.0 1.3174438c3.157898 3.9129639 2.0616455 17.55249 -1.0524902 22.160217c-3.1141968 4.607788 -14.913391 6.4005127 -17.632568 5.48645c-2.7191772 -0.91400146 2.5454712 -8.191345 1.3175659 -10.970703c-1.2279053 -2.7792969 -5.0008545 -3.1816406 -8.684998 -5.705261c-3.684204 -2.5236816 -7.630371 -8.229675 -13.419983 -9.436584c-5.7895813 -1.2069702 -15.659637 0.21990967 -21.317566 2.1950073c-5.6579285 1.9750366 -15.261597 6.7298584 -12.629913 9.655457c2.6316528 2.925537 21.57785 3.3267822 28.419952 7.8980713c6.842041 4.57135 11.404602 12.069336 12.632507 19.529785c1.2279053 7.460388 -6.2738037 20.881104 -5.2650757 25.23285c1.0087891 4.3516846 9.431335 0.7312622 11.317566 0.8775635" fill-rule="evenodd"/><path fill="#000000" fill-opacity="0.0" d="m464.93646 646.2093c2.5441895 -1.1842041 31.316284 -4.7366943 40.79001 -2.1050415c9.473785 2.6317139 12.5000305 13.202148 16.05252 17.89502c3.5524902 4.692932 2.9820557 8.9904175 5.262451 10.262512c2.2803955 1.2720947 4.9991455 -1.9720459 8.419922 -2.6299438c3.4208374 -0.65789795 8.990845 2.3665771 12.1050415 -1.3175659c3.1141357 -3.684204 9.606262 -17.541992 6.580017 -20.787415c-3.026245 -3.2454224 -21.360474 -1.3162842 -24.737549 1.3149414c-3.3770752 2.6312256 2.413391 12.981201 4.4750977 14.472473c2.0616455 1.4912109 6.8862305 -3.595398 7.8950195 -5.5249634c1.008728 -1.9295654 0.9208374 -3.5962524 -1.8425293 -6.05249c-2.7633667 -2.4562378 -12.193359 -5.8779297 -14.737549 -8.685059c-2.5441895 -2.8070679 -0.6592407 -4.9995117 -0.52752686 -8.157471c0.13165283 -3.157898 -1.007019 -9.693359 1.3175659 -10.790039c2.324585 -1.0966187 8.814087 0.5695801 12.629944 4.210022c3.815796 3.6403809 10.527954 15.044617 10.265076 17.632507c-0.26293945 2.5879517 -11.009216 0.96502686 -11.842529 -2.1049805c-0.833313 -3.0700073 -0.30664062 -12.323669 6.8425293 -16.314941c7.14917 -3.991272 32.017517 -4.430481 36.05249 -7.6325684c4.034973 -3.2020874 -7.7633667 -9.211731 -11.842529 -11.580017c-4.0791626 -2.3683472 -9.869202 -3.2003784 -12.632568 -2.6299438c-2.7633057 0.5704346 -6.4037476 0.4824829 -3.9474487 6.05249c2.4562378 5.5700073 10.570862 22.367432 18.684998 27.367432c8.114197 5.0 29.824585 -1.4465942 30.0 2.6325684c0.17541504 4.0791626 -21.359558 19.34253 -28.94751 21.84253c-7.5878906 2.5 -14.299194 -2.7633667 -16.580017 -6.8425293c-2.2808838 -4.0791626 -3.3770752 -16.57959 2.8950195 -17.632568c6.2720947 -1.0529175 30.614563 8.200806 34.737488 11.315002c4.122925 3.1141357 -4.9124756 6.9750366 -10.0 7.370056c-5.0874634 0.39501953 -11.752808 -3.684143 -20.524902 -5.0c-8.772095 -1.3158569 -20.221375 -2.6316528 -32.107605 -2.8950195c-11.8862915 -0.26330566 -28.420837 1.9291382 -39.20999 1.3150024c-10.789154 -0.6141968 -28.069122 -3.815857 -25.524933 -5.0z" fill-rule="evenodd"/><path stroke="#ffe599" stroke-width="4.0" stroke-linejoin="round" stroke-linecap="butt" d="m464.93646 646.2093c2.5441895 -1.1842041 31.316284 -4.7366943 40.79001 -2.1050415c9.473785 2.6317139 12.5000305 13.202148 16.05252 17.89502c3.5524902 4.692932 2.9820557 8.9904175 5.262451 10.262512c2.2803955 1.2720947 4.9991455 -1.9720459 8.419922 -2.6299438c3.4208374 -0.65789795 8.990845 2.3665771 12.1050415 -1.3175659c3.1141357 -3.684204 9.606262 -17.541992 6.580017 -20.787415c-3.026245 -3.2454224 -21.360474 -1.3162842 -24.737549 1.3149414c-3.3770752 2.6312256 2.413391 12.981201 4.4750977 14.472473c2.0616455 1.4912109 6.8862305 -3.595398 7.8950195 -5.5249634c1.008728 -1.9295654 0.9208374 -3.5962524 -1.8425293 -6.05249c-2.7633667 -2.4562378 -12.193359 -5.8779297 -14.737549 -8.685059c-2.5441895 -2.8070679 -0.6592407 -4.9995117 -0.52752686 -8.157471c0.13165283 -3.157898 -1.007019 -9.693359 1.3175659 -10.790039c2.324585 -1.0966187 8.814087 0.5695801 12.629944 4.210022c3.815796 3.6403809 10.527954 15.044617 10.265076 17.632507c-0.26293945 2.5879517 -11.009216 0.96502686 -11.842529 -2.1049805c-0.833313 -3.0700073 -0.30664062 -12.323669 6.8425293 -16.314941c7.14917 -3.991272 32.017517 -4.430481 36.05249 -7.6325684c4.034973 -3.2020874 -7.7633667 -9.211731 -11.842529 -11.580017c-4.0791626 -2.3683472 -9.869202 -3.2003784 -12.632568 -2.6299438c-2.7633057 0.5704346 -6.4037476 0.4824829 -3.9474487 6.05249c2.4562378 5.5700073 10.570862 22.367432 18.684998 27.367432c8.114197 5.0 29.824585 -1.4465942 30.0 2.6325684c0.17541504 4.0791626 -21.359558 19.34253 -28.94751 21.84253c-7.5878906 2.5 -14.299194 -2.7633667 -16.580017 -6.8425293c-2.2808838 -4.0791626 -3.3770752 -16.57959 2.8950195 -17.632568c6.2720947 -1.0529175 30.614563 8.200806 34.737488 11.315002c4.122925 3.1141357 -4.9124756 6.9750366 -10.0 7.370056c-5.0874634 0.39501953 -11.752808 -3.684143 -20.524902 -5.0c-8.772095 -1.3158569 -20.221375 -2.6316528 -32.107605 -2.8950195c-11.8862915 -0.26330566 -28.420837 1.9291382 -39.20999 1.3150024c-10.789154 -0.6141968 -28.069122 -3.815857 -25.524933 -5.0z" fill-rule="evenodd"/><path fill="#000000" fill-opacity="0.0" d="m473.6181 641.99976c4.7808533 -3.2016602 14.123352 -15.920349 28.685059 -19.20996c14.5616455 -3.2895508 50.17627 -6.360901 58.684998 -0.52752686c8.508789 5.833313 -2.4570923 29.913391 -7.6325073 35.527527c-5.175415 5.614197 -21.314941 0.7891846 -23.419983 -1.8425293c-2.1049805 -2.6316528 -2.1482544 -12.324585 10.790039 -13.94751c12.9383545 -1.6229248 54.296143 7.36792 66.839905 4.210022c12.543762 -3.157959 10.483826 -16.797913 8.422546 -23.157532c-2.0612183 -6.359558 -14.0354 -12.368286 -20.789978 -15.0c-6.7546387 -2.6316528 -12.018372 -1.4916382 -19.737549 -0.789978c-7.7191772 0.70166016 -16.577454 -0.35083008 -26.577454 5.0c-10.0 5.35083 -40.834625 24.517029 -33.422546 27.10498c7.4120483 2.5878906 65.30707 -7.630371 77.89502 -11.577454c12.587891 -3.9470825 1.7991943 -11.622498 -2.3674927 -12.10498c-4.166626 -0.4824829 -21.360413 3.9470825 -22.632507 9.209961c-1.2720947 5.2629395 8.20166 20.17456 15.0 22.367493c6.79834 2.192871 23.29004 -4.6487427 25.79004 -9.210022c2.5 -4.5612183 -4.123352 -15.131226 -10.790039 -18.15747c-6.666687 -3.026245 -21.35913 -0.35083008 -29.20996 0c-7.85083 0.35083008 -13.333801 -3.8599854 -17.89502 2.1049805c-4.5612793 5.965027 -16.1391 27.720032 -9.472473 33.68506c6.666687 5.965027 32.454956 2.85083 49.472473 2.1049805c17.017456 -0.7458496 42.807922 -2.369629 52.632507 -6.580017c9.824585 -4.210449 9.9991455 -12.059509 6.3150024 -18.682434c-3.684204 -6.622925 -18.683289 -17.063843 -28.419983 -21.055115c-9.736633 -3.991272 -24.648743 -6.7524414 -30.0 -2.892395c-5.3512573 3.8600464 -2.765503 15.131653 -2.107605 26.05249c0.65789795 10.920837 0.9672241 32.893677 6.0551147 39.472473c5.0879517 6.5787354 16.270813 3.3770752 24.472473 0c8.20166 -3.3771362 20.789978 -15.394165 24.737488 -20.262512c3.9475098 -4.868286 2.0617065 -6.4037476 -1.0524902 -8.94751c-3.1141357 -2.5437012 -16.053345 -8.72699 -17.632507 -6.3149414c-1.5791626 2.4120483 1.6661987 17.892822 8.157471 20.787415c6.491272 2.8945923 25.000427 -0.3937378 30.79004 -3.419983c5.789551 -3.026245 9.956238 -10.921692 3.9475098 -14.737488c-6.008789 -3.815857 -22.324585 -11.40332 -40.0 -8.157532c-17.675415 3.2458496 -53.815857 21.27301 -66.05249 27.632568c-12.236694 6.359558 -8.902466 8.288269 -7.3674927 10.524963c1.5350342 2.2366333 9.077454 2.675415 16.577454 2.8950195c7.5 0.21954346 25.089233 0.26464844 28.422546 -1.5774536c3.333374 -1.842102 -2.6766968 -8.246704 -8.422546 -9.475098c-5.7458496 -1.2283325 -27.14917 1.2279663 -26.05249 2.1050415c1.0966797 0.8770752 23.290466 3.3328857 32.632507 3.1574707c9.342102 -0.17541504 17.981628 -0.087524414 23.419983 -4.209961c5.4382935 -4.1224976 8.990784 -14.209106 9.209961 -20.524963c0.21917725 -6.315857 -2.939209 -16.580505 -7.8950195 -17.370056c-4.9558105 -0.7896118 -10.129456 8.070862 -21.839905 12.632507c-11.710388 4.5617065 -43.685486 15.570862 -48.422546 14.737549c-4.7371216 -0.833313 5.35083 -12.28125 20.0 -19.737549c14.64917 -7.456238 54.210815 -23.20166 67.89502 -25.0c13.684143 -1.7983398 14.385376 5.876648 14.209961 14.209961c-0.17541504 8.333374 -16.31543 27.675903 -15.262451 35.79004c1.0529175 8.114197 22.369629 9.693359 21.580017 12.89502c-0.7895508 3.2016602 -15.440063 6.8411865 -26.317566 6.3149414c-10.877502 -0.5262451 -33.68463 -3.112854 -38.94751 -9.472412c-5.2628784 -6.359558 4.9138184 -23.158325 7.370056 -28.685059c2.4562988 -5.5266724 6.1395874 -3.729187 7.3674927 -4.4750366" fill-rule="evenodd"/><path stroke="#ffe599" stroke-width="4.0" stroke-linejoin="round" stroke-linecap="butt" d="m473.6181 641.99976c4.7808533 -3.2016602 14.123352 -15.920349 28.685059 -19.20996c14.5616455 -3.2895508 50.17627 -6.360901 58.684998 -0.52752686c8.508789 5.833313 -2.4570923 29.913391 -7.6325073 35.527527c-5.175415 5.614197 -21.314941 0.7891846 -23.419983 -1.8425293c-2.1049805 -2.6316528 -2.1482544 -12.324585 10.790039 -13.94751c12.9383545 -1.6229248 54.296143 7.36792 66.839905 4.210022c12.543762 -3.157959 10.483826 -16.797913 8.422546 -23.157532c-2.0612183 -6.359558 -14.0354 -12.368286 -20.789978 -15.0c-6.7546387 -2.6316528 -12.018372 -1.4916382 -19.737549 -0.789978c-7.7191772 0.70166016 -16.577454 -0.35083008 -26.577454 5.0c-10.0 5.35083 -40.834625 24.517029 -33.422546 27.10498c7.4120483 2.5878906 65.30707 -7.630371 77.89502 -11.577454c12.587891 -3.9470825 1.7991943 -11.622498 -2.3674927 -12.10498c-4.166626 -0.4824829 -21.360413 3.9470825 -22.632507 9.209961c-1.2720947 5.2629395 8.20166 20.17456 15.0 22.367493c6.79834 2.192871 23.29004 -4.6487427 25.79004 -9.210022c2.5 -4.5612183 -4.123352 -15.131226 -10.790039 -18.15747c-6.666687 -3.026245 -21.35913 -0.35083008 -29.20996 0c-7.85083 0.35083008 -13.333801 -3.8599854 -17.89502 2.1049805c-4.5612793 5.965027 -16.1391 27.720032 -9.472473 33.68506c6.666687 5.965027 32.454956 2.85083 49.472473 2.1049805c17.017456 -0.7458496 42.807922 -2.369629 52.632507 -6.580017c9.824585 -4.210449 9.9991455 -12.059509 6.3150024 -18.682434c-3.684204 -6.622925 -18.683289 -17.063843 -28.419983 -21.055115c-9.736633 -3.991272 -24.648743 -6.7524414 -30.0 -2.892395c-5.3512573 3.8600464 -2.765503 15.131653 -2.107605 26.05249c0.65789795 10.920837 0.9672241 32.893677 6.0551147 39.472473c5.0879517 6.5787354 16.270813 3.3770752 24.472473 0c8.20166 -3.3771362 20.789978 -15.394165 24.737488 -20.262512c3.9475098 -4.868286 2.0617065 -6.4037476 -1.0524902 -8.94751c-3.1141357 -2.5437012 -16.053345 -8.72699 -17.632507 -6.3149414c-1.5791626 2.4120483 1.6661987 17.892822 8.157471 20.787415c6.491272 2.8945923 25.000427 -0.3937378 30.79004 -3.419983c5.789551 -3.026245 9.956238 -10.921692 3.9475098 -14.737488c-6.008789 -3.815857 -22.324585 -11.40332 -40.0 -8.157532c-17.675415 3.2458496 -53.815857 21.27301 -66.05249 27.632568c-12.236694 6.359558 -8.902466 8.288269 -7.3674927 10.524963c1.5350342 2.2366333 9.077454 2.675415 16.577454 2.8950195c7.5 0.21954346 25.089233 0.26464844 28.422546 -1.5774536c3.333374 -1.842102 -2.6766968 -8.246704 -8.422546 -9.475098c-5.7458496 -1.2283325 -27.14917 1.2279663 -26.05249 2.1050415c1.0966797 0.8770752 23.290466 3.3328857 32.632507 3.1574707c9.342102 -0.17541504 17.981628 -0.087524414 23.419983 -4.209961c5.4382935 -4.1224976 8.990784 -14.209106 9.209961 -20.524963c0.21917725 -6.315857 -2.939209 -16.580505 -7.8950195 -17.370056c-4.9558105 -0.7896118 -10.129456 8.070862 -21.839905 12.632507c-11.710388 4.5617065 -43.685486 15.570862 -48.422546 14.737549c-4.7371216 -0.833313 5.35083 -12.28125 20.0 -19.737549c14.64917 -7.456238 54.210815 -23.20166 67.89502 -25.0c13.684143 -1.7983398 14.385376 5.876648 14.209961 14.209961c-0.17541504 8.333374 -16.31543 27.675903 -15.262451 35.79004c1.0529175 8.114197 22.369629 9.693359 21.580017 12.89502c-0.7895508 3.2016602 -15.440063 6.8411865 -26.317566 6.3149414c-10.877502 -0.5262451 -33.68463 -3.112854 -38.94751 -9.472412c-5.2628784 -6.359558 4.9138184 -23.158325 7.370056 -28.685059c2.4562988 -5.5266724 6.1395874 -3.729187 7.3674927 -4.4750366" fill-rule="evenodd"/><path fill="#000000" fill-opacity="0.0" d="m544.1457 605.68463c4.692871 -1.1842041 17.850342 -6.402893 28.15747 -7.1049805c10.307068 -0.70214844 32.983337 0.9190674 33.684998 2.892334c0.7017212 1.9733276 -34.65045 9.035034 -29.475037 8.94751c5.175415 -0.08746338 52.939636 -7.3674316 60.527588 -9.472412c7.5878906 -2.1049805 -13.157959 -4.911621 -15.0 -3.1574707c-1.842102 1.7541504 0.4824829 8.814087 3.9474487 13.682373c3.4650269 4.868347 10.439209 9.913391 16.84253 15.527588c6.4033203 5.614197 15.305786 13.157471 21.577454 18.15747c6.2716675 5.0 15.175415 8.114197 16.05249 11.842529c0.8770752 3.7283325 -5.921692 9.957581 -10.790039 10.527527c-4.868347 0.5700073 -17.411194 -4.125061 -18.419922 -7.107605c-1.0087891 -2.982483 9.07782 -13.682373 12.367432 -10.7873535c3.2896118 2.8949585 2.7209473 23.859558 7.370056 28.15747c4.64917 4.2979126 16.533691 2.1915894 20.524963 -2.3701172c3.991272 -4.5616455 4.8259277 -23.59668 3.4225464 -25.0c-1.4033203 -1.4033203 -12.412476 12.632568 -11.842468 16.580078c0.5699463 3.9475098 12.674927 14.034973 15.262451 7.1049805c2.5874634 -6.9299927 7.587036 -37.150024 0.26245117 -48.68506c-7.324585 -11.534973 -39.51703 -21.051575 -44.20996 -20.524902c-4.692932 0.52667236 11.622498 22.062134 16.05249 23.685059c4.4299927 1.6228638 8.553833 -18.289612 10.527527 -13.94751c1.9737549 4.342041 6.4466553 33.728333 1.3150024 40.0c-5.131653 6.2716064 -31.096252 1.0511475 -32.10498 -2.3701172c-1.0087891 -3.4212646 15.526245 -15.394592 26.05249 -18.15747c10.526245 -2.7628784 35.350403 -1.7532959 37.10498 1.5800781c1.7545776 3.333313 -22.19159 22.148254 -26.577454 18.419922c-4.385803 -3.7283325 5.4379272 -31.93042 0.2625122 -40.79004c-5.175415 -8.859558 -24.999146 -10.788696 -31.315002 -12.367432c-6.315796 -1.5787354 -12.720032 0.6141968 -6.580017 2.8950195c6.1399536 2.2808228 32.893677 10.614624 43.41992 10.790039c10.526245 0.17541504 18.72876 -13.246338 19.737549 -9.737549c1.008728 3.508728 -13.728821 20.79004 -13.685059 30.79004c0.043762207 10.0 11.842102 26.666199 13.94751 29.20996c2.1054077 2.5437622 1.5795898 -9.517517 -1.3149414 -13.94751c-2.8945923 -4.4299927 -14.561279 -15.307983 -16.05249 -12.632568c-1.491272 2.675415 5.4820557 22.018372 7.1049805 28.685059c1.6229248 6.666687 2.1937866 9.429138 2.6325073 11.314941" fill-rule="evenodd"/><path stroke="#ffe599" stroke-width="4.0" stroke-linejoin="round" stroke-linecap="butt" d="m544.1457 605.68463c4.692871 -1.1842041 17.850342 -6.402893 28.15747 -7.1049805c10.307068 -0.70214844 32.983337 0.9190674 33.684998 2.892334c0.7017212 1.9733276 -34.65045 9.035034 -29.475037 8.94751c5.175415 -0.08746338 52.939636 -7.3674316 60.527588 -9.472412c7.5878906 -2.1049805 -13.157959 -4.911621 -15.0 -3.1574707c-1.842102 1.7541504 0.4824829 8.814087 3.9474487 13.682373c3.4650269 4.868347 10.439209 9.913391 16.84253 15.527588c6.4033203 5.614197 15.305786 13.157471 21.577454 18.15747c6.2716675 5.0 15.175415 8.114197 16.05249 11.842529c0.8770752 3.7283325 -5.921692 9.957581 -10.790039 10.527527c-4.868347 0.5700073 -17.411194 -4.125061 -18.419922 -7.107605c-1.0087891 -2.982483 9.07782 -13.682373 12.367432 -10.7873535c3.2896118 2.8949585 2.7209473 23.859558 7.370056 28.15747c4.64917 4.2979126 16.533691 2.1915894 20.524963 -2.3701172c3.991272 -4.5616455 4.8259277 -23.59668 3.4225464 -25.0c-1.4033203 -1.4033203 -12.412476 12.632568 -11.842468 16.580078c0.5699463 3.9475098 12.674927 14.034973 15.262451 7.1049805c2.5874634 -6.9299927 7.587036 -37.150024 0.26245117 -48.68506c-7.324585 -11.534973 -39.51703 -21.051575 -44.20996 -20.524902c-4.692932 0.52667236 11.622498 22.062134 16.05249 23.685059c4.4299927 1.6228638 8.553833 -18.289612 10.527527 -13.94751c1.9737549 4.342041 6.4466553 33.728333 1.3150024 40.0c-5.131653 6.2716064 -31.096252 1.0511475 -32.10498 -2.3701172c-1.0087891 -3.4212646 15.526245 -15.394592 26.05249 -18.15747c10.526245 -2.7628784 35.350403 -1.7532959 37.10498 1.5800781c1.7545776 3.333313 -22.19159 22.148254 -26.577454 18.419922c-4.385803 -3.7283325 5.4379272 -31.93042 0.2625122 -40.79004c-5.175415 -8.859558 -24.999146 -10.788696 -31.315002 -12.367432c-6.315796 -1.5787354 -12.720032 0.6141968 -6.580017 2.8950195c6.1399536 2.2808228 32.893677 10.614624 43.41992 10.790039c10.526245 0.17541504 18.72876 -13.246338 19.737549 -9.737549c1.008728 3.508728 -13.728821 20.79004 -13.685059 30.79004c0.043762207 10.0 11.842102 26.666199 13.94751 29.20996c2.1054077 2.5437622 1.5795898 -9.517517 -1.3149414 -13.94751c-2.8945923 -4.4299927 -14.561279 -15.307983 -16.05249 -12.632568c-1.491272 2.675415 5.4820557 22.018372 7.1049805 28.685059c1.6229248 6.666687 2.1937866 9.429138 2.6325073 11.314941" fill-rule="evenodd"/><path fill="#000000" fill-opacity="0.0" d="m681.671 652.2619c6.79834 -7.368347 27.061707 -42.148743 40.79004 -44.210022c13.7283325 -2.0612183 41.799194 24.825073 41.580017 31.84253c-0.21911621 7.017517 -32.23706 13.025818 -42.89502 10.262451c-10.657898 -2.7633057 -12.2803955 -20.439148 -21.05249 -26.842468c-8.772095 -6.4033203 -24.299194 -15.437012 -31.580017 -11.577454c-7.2808228 3.859558 -21.578735 27.892822 -12.10498 34.734924c9.473755 6.842041 52.58789 9.387573 68.94751 6.317566c16.359558 -3.0700073 31.578308 -20.263794 29.20996 -24.737549c-2.3683472 -4.473755 -40.61328 -5.219116 -43.419983 -2.1049805c-2.8066406 3.1141968 22.676758 21.57965 26.580078 20.79004c3.9033203 -0.7896118 -0.045959473 -18.77295 -3.1600952 -25.527527c-3.1141968 -6.7546387 -10.524963 -13.728394 -15.524963 -15.0c-5.0 -1.2716675 -16.01001 1.9312744 -14.475037 7.370056c1.5349731 5.4387207 10.614624 22.80664 23.685059 25.262451c13.070374 2.4558105 41.57959 -7.4570923 54.737488 -10.527527c13.157959 -3.0704346 18.727478 -10.351318 24.210022 -7.8950195c5.482483 2.4562378 17.018372 17.28125 8.684998 22.632507c-8.333313 5.3513184 -44.342957 9.562561 -58.684998 9.475098c-14.342102 -0.087524414 -23.990417 -5.4383545 -27.367493 -10.0c-3.3770752 -4.5617065 -7.2370605 -15.089233 7.1049805 -17.370117c14.342102 -2.2808228 75.78961 9.1552734E-4 78.94751 3.6850586c3.157959 3.684204 -48.11371 16.57788 -60.0 18.419983c-11.88623 1.842041 -18.817566 -5.6570435 -11.317566 -7.3674927c7.5 -1.7103882 42.326355 -2.7633057 56.317566 -2.8950195c13.991272 -0.13165283 31.09491 3.6837158 27.629944 2.1049805c-3.4650269 -1.5787354 -36.18329 -8.901978 -48.419983 -11.577393c-12.236633 -2.675415 -22.105408 -1.9309082 -25.0 -4.4750977c-2.8945312 -2.5441895 4.036316 -14.956665 7.6325684 -10.789978c3.5962524 4.166626 12.278198 26.316223 13.944885 35.789978c1.666687 9.473755 -0.61157227 17.543762 -3.9448853 21.05249c-3.333313 3.508789 -10.002197 1.4033203 -16.055115 0c-6.0529175 -1.4033203 -24.16626 -2.3674316 -20.262451 -8.419922c3.9037476 -6.05249 33.860413 -21.44751 43.684998 -27.89502c9.824585 -6.44751 15.262512 -7.939209 15.262512 -10.790039c0 -2.85083 -11.490845 -7.060364 -15.262512 -6.3149414c-3.7716064 0.74542236 -8.595337 3.5944824 -7.3674316 10.787415c1.2279053 7.192871 12.454529 25.220886 14.734924 32.370056c2.2803955 7.14917 6.622925 9.779541 -1.0524902 10.524963c-7.675415 0.7453613 -32.543762 -3.7720947 -45.0 -6.05249c-12.456299 -2.2803955 -25.52716 -4.5599365 -29.737549 -7.629944c-4.210388 -3.0700073 -1.6653442 -10.175842 4.4750366 -10.790039c6.140442 -0.61413574 30.17456 3.2891846 32.367493 7.1049805c2.1929321 3.815857 -13.727478 12.895447 -19.20996 15.790039c-5.482544 2.8945923 -10.92218 1.1390991 -13.685059 1.5774536c-2.7629395 0.43829346 -10.56781 2.5874634 -2.892395 1.0524902c7.675415 -1.5350342 38.024048 -7.2803955 48.944885 -10.262512c10.920837 -2.9820557 15.746704 -8.94574 16.580078 -7.629883c0.833313 1.3157959 -3.1150513 13.946167 -11.580078 15.524902c-8.465027 1.5787354 -29.341675 -3.1137085 -39.20996 -6.05249c-9.868347 -2.9387207 -17.017517 -7.895874 -20.0 -11.580017c-2.982544 -3.684204 -2.5004272 -6.577881 2.1049805 -10.524963c4.6054077 -3.9470825 17.018799 -8.990784 25.527527 -13.157471c8.508789 -4.166687 26.665405 -8.421265 25.524963 -11.842529c-1.1404419 -3.4212646 -24.165771 -6.404175 -32.36743 -8.684998c-8.20166 -2.2808838 -9.079224 -3.7720947 -16.84253 -5.0c-7.7633667 -1.2279663 -30.307983 -3.9904175 -29.737549 -2.3674927c0.5704346 1.6229248 24.958008 11.490845 33.160095 12.10498c8.202087 0.6141968 9.385864 -6.57782 16.05249 -8.419922c6.666687 -1.842102 17.149597 -4.781311 23.94751 -2.6325684c6.7979126 2.1487427 15.041992 8.200378 16.839905 15.524963c1.7979126 7.324585 -1.7983398 23.422546 -6.05249 28.422546c-4.2541504 5.0 -20.52539 0.83203125 -19.472473 1.5774536c1.0529785 0.7453613 17.588379 2.324585 25.79004 2.8950195c8.20166 0.5704346 13.419983 -0.17456055 23.419983 0.52752686c10.0 0.7020874 34.21173 2.8517456 36.580017 3.6850586c2.3683472 0.833313 -15.396301 0.7012329 -22.370056 1.3149414c-6.973755 0.61376953 -16.534119 1.4466553 -19.472473 2.3674927c-2.9382935 0.92077637 -2.3240967 3.3328857 1.8425293 3.1574707c4.166687 -0.17541504 17.41211 -4.4295654 23.15747 -4.210022c5.7454224 0.21960449 4.911682 5.439636 11.315002 5.527588c6.4033203 0.08795166 20.131226 -2.982483 27.10498 -5.0c6.973755 -2.017517 12.939209 -3.5962524 14.737549 -7.1049805c1.7983398 -3.508728 2.4558105 -12.807068 -3.9475098 -13.94751c-6.4033203 -1.1404419 -32.63037 4.29834 -34.472473 7.1049805c-1.842102 2.8066406 18.419983 7.9365845 23.419983 9.734924c5.0 1.7983398 8.422119 0.3972168 6.580017 1.0551147c-1.842102 0.65789795 -10.483398 2.0153198 -17.632507 2.892395c-7.14917 0.8770752 -17.36792 4.2558594 -25.262512 2.3700562c-7.8945312 -1.8858032 -19.473328 -8.290039 -22.10498 -13.685059c-2.6316528 -5.3949585 2.8062134 -14.474609 6.3149414 -18.684998c3.508789 -4.210449 11.053406 -6.7528687 14.737549 -6.5774536c3.684204 0.17541504 6.6658325 3.814087 7.3674927 7.629944c0.70166016 3.815796 -0.30670166 10.352539 -3.1575317 15.265076c-2.85083 4.9125366 -8.026245 11.2716675 -13.94751 14.209961c-5.9212036 2.9383545 -19.430847 2.1478882 -21.580017 3.419983c-2.14917 1.2720947 3.9916992 3.2475586 8.685059 4.2125854c4.6932983 0.96502686 11.141724 1.9287109 19.475037 1.5773926c8.333313 -0.35125732 22.805786 -2.2816772 30.524963 -3.6849976c7.719116 -1.4033203 12.28125 -2.3665771 15.789978 -4.7349243c3.508789 -2.3683472 5.701233 -6.3171387 5.262512 -9.475037c-0.43878174 -3.157959 -1.1846313 -5.5253906 -7.8950195 -9.472473c-6.710449 -3.9470825 -26.27124 -12.850403 -32.367493 -14.209961c-6.0961914 -1.3595581 -4.867859 3.2016602 -4.209961 6.05249c0.65789795 2.85083 5.1312256 6.885803 8.157471 11.05249c3.026245 4.166687 8.94751 10.000427 10.0 13.94751c1.0524902 3.9470825 -0.65875244 8.507019 -3.6849976 9.734924c-3.026245 1.2279053 -9.69165 0.13250732 -14.472473 -2.3674927c-4.7808228 -2.5 -11.361755 -7.5446167 -14.212585 -12.632507c-2.85083 -5.0879517 -0.43658447 -13.158386 -2.892395 -17.89502c-2.4558105 -4.7366943 -8.509155 -9.077881 -11.842529 -10.524963c-3.333313 -1.4470825 -5.6574707 0.5704346 -8.157471 1.8425293c-2.5 1.2720947 -6.315857 2.3692017 -6.8425293 5.790039c-0.52667236 3.4208374 5.4370117 9.29657 3.682434 14.734924c-1.7545776 5.4382935 -11.841675 14.912476 -14.209961 17.89502" fill-rule="evenodd"/><path stroke="#ffe599" stroke-width="4.0" stroke-linejoin="round" stroke-linecap="butt" d="m681.671 652.2619c6.79834 -7.368347 27.061707 -42.148743 40.79004 -44.210022c13.7283325 -2.0612183 41.799194 24.825073 41.580017 31.84253c-0.21911621 7.017517 -32.23706 13.025818 -42.89502 10.262451c-10.657898 -2.7633057 -12.2803955 -20.439148 -21.05249 -26.842468c-8.772095 -6.4033203 -24.299194 -15.437012 -31.580017 -11.577454c-7.2808228 3.859558 -21.578735 27.892822 -12.10498 34.734924c9.473755 6.842041 52.58789 9.387573 68.94751 6.317566c16.359558 -3.0700073 31.578308 -20.263794 29.20996 -24.737549c-2.3683472 -4.473755 -40.61328 -5.219116 -43.419983 -2.1049805c-2.8066406 3.1141968 22.676758 21.57965 26.580078 20.79004c3.9033203 -0.7896118 -0.045959473 -18.77295 -3.1600952 -25.527527c-3.1141968 -6.7546387 -10.524963 -13.728394 -15.524963 -15.0c-5.0 -1.2716675 -16.01001 1.9312744 -14.475037 7.370056c1.5349731 5.4387207 10.614624 22.80664 23.685059 25.262451c13.070374 2.4558105 41.57959 -7.4570923 54.737488 -10.527527c13.157959 -3.0704346 18.727478 -10.351318 24.210022 -7.8950195c5.482483 2.4562378 17.018372 17.28125 8.684998 22.632507c-8.333313 5.3513184 -44.342957 9.562561 -58.684998 9.475098c-14.342102 -0.087524414 -23.990417 -5.4383545 -27.367493 -10.0c-3.3770752 -4.5617065 -7.2370605 -15.089233 7.1049805 -17.370117c14.342102 -2.2808228 75.78961 9.1552734E-4 78.94751 3.6850586c3.157959 3.684204 -48.11371 16.57788 -60.0 18.419983c-11.88623 1.842041 -18.817566 -5.6570435 -11.317566 -7.3674927c7.5 -1.7103882 42.326355 -2.7633057 56.317566 -2.8950195c13.991272 -0.13165283 31.09491 3.6837158 27.629944 2.1049805c-3.4650269 -1.5787354 -36.18329 -8.901978 -48.419983 -11.577393c-12.236633 -2.675415 -22.105408 -1.9309082 -25.0 -4.4750977c-2.8945312 -2.5441895 4.036316 -14.956665 7.6325684 -10.789978c3.5962524 4.166626 12.278198 26.316223 13.944885 35.789978c1.666687 9.473755 -0.61157227 17.543762 -3.9448853 21.05249c-3.333313 3.508789 -10.002197 1.4033203 -16.055115 0c-6.0529175 -1.4033203 -24.16626 -2.3674316 -20.262451 -8.419922c3.9037476 -6.05249 33.860413 -21.44751 43.684998 -27.89502c9.824585 -6.44751 15.262512 -7.939209 15.262512 -10.790039c0 -2.85083 -11.490845 -7.060364 -15.262512 -6.3149414c-3.7716064 0.74542236 -8.595337 3.5944824 -7.3674316 10.787415c1.2279053 7.192871 12.454529 25.220886 14.734924 32.370056c2.2803955 7.14917 6.622925 9.779541 -1.0524902 10.524963c-7.675415 0.7453613 -32.543762 -3.7720947 -45.0 -6.05249c-12.456299 -2.2803955 -25.52716 -4.5599365 -29.737549 -7.629944c-4.210388 -3.0700073 -1.6653442 -10.175842 4.4750366 -10.790039c6.140442 -0.61413574 30.17456 3.2891846 32.367493 7.1049805c2.1929321 3.815857 -13.727478 12.895447 -19.20996 15.790039c-5.482544 2.8945923 -10.92218 1.1390991 -13.685059 1.5774536c-2.7629395 0.43829346 -10.56781 2.5874634 -2.892395 1.0524902c7.675415 -1.5350342 38.024048 -7.2803955 48.944885 -10.262512c10.920837 -2.9820557 15.746704 -8.94574 16.580078 -7.629883c0.833313 1.3157959 -3.1150513 13.946167 -11.580078 15.524902c-8.465027 1.5787354 -29.341675 -3.1137085 -39.20996 -6.05249c-9.868347 -2.9387207 -17.017517 -7.895874 -20.0 -11.580017c-2.982544 -3.684204 -2.5004272 -6.577881 2.1049805 -10.524963c4.6054077 -3.9470825 17.018799 -8.990784 25.527527 -13.157471c8.508789 -4.166687 26.665405 -8.421265 25.524963 -11.842529c-1.1404419 -3.4212646 -24.165771 -6.404175 -32.36743 -8.684998c-8.20166 -2.2808838 -9.079224 -3.7720947 -16.84253 -5.0c-7.7633667 -1.2279663 -30.307983 -3.9904175 -29.737549 -2.3674927c0.5704346 1.6229248 24.958008 11.490845 33.160095 12.10498c8.202087 0.6141968 9.385864 -6.57782 16.05249 -8.419922c6.666687 -1.842102 17.149597 -4.781311 23.94751 -2.6325684c6.7979126 2.1487427 15.041992 8.200378 16.839905 15.524963c1.7979126 7.324585 -1.7983398 23.422546 -6.05249 28.422546c-4.2541504 5.0 -20.52539 0.83203125 -19.472473 1.5774536c1.0529785 0.7453613 17.588379 2.324585 25.79004 2.8950195c8.20166 0.5704346 13.419983 -0.17456055 23.419983 0.52752686c10.0 0.7020874 34.21173 2.8517456 36.580017 3.6850586c2.3683472 0.833313 -15.396301 0.7012329 -22.370056 1.3149414c-6.973755 0.61376953 -16.534119 1.4466553 -19.472473 2.3674927c-2.9382935 0.92077637 -2.3240967 3.3328857 1.8425293 3.1574707c4.166687 -0.17541504 17.41211 -4.4295654 23.15747 -4.210022c5.7454224 0.21960449 4.911682 5.439636 11.315002 5.527588c6.4033203 0.08795166 20.131226 -2.982483 27.10498 -5.0c6.973755 -2.017517 12.939209 -3.5962524 14.737549 -7.1049805c1.7983398 -3.508728 2.4558105 -12.807068 -3.9475098 -13.94751c-6.4033203 -1.1404419 -32.63037 4.29834 -34.472473 7.1049805c-1.842102 2.8066406 18.419983 7.9365845 23.419983 9.734924c5.0 1.7983398 8.422119 0.3972168 6.580017 1.0551147c-1.842102 0.65789795 -10.483398 2.0153198 -17.632507 2.892395c-7.14917 0.8770752 -17.36792 4.2558594 -25.262512 2.3700562c-7.8945312 -1.8858032 -19.473328 -8.290039 -22.10498 -13.685059c-2.6316528 -5.3949585 2.8062134 -14.474609 6.3149414 -18.684998c3.508789 -4.210449 11.053406 -6.7528687 14.737549 -6.5774536c3.684204 0.17541504 6.6658325 3.814087 7.3674927 7.629944c0.70166016 3.815796 -0.30670166 10.352539 -3.1575317 15.265076c-2.85083 4.9125366 -8.026245 11.2716675 -13.94751 14.209961c-5.9212036 2.9383545 -19.430847 2.1478882 -21.580017 3.419983c-2.14917 1.2720947 3.9916992 3.2475586 8.685059 4.2125854c4.6932983 0.96502686 11.141724 1.9287109 19.475037 1.5773926c8.333313 -0.35125732 22.805786 -2.2816772 30.524963 -3.6849976c7.719116 -1.4033203 12.28125 -2.3665771 15.789978 -4.7349243c3.508789 -2.3683472 5.701233 -6.3171387 5.262512 -9.475037c-0.43878174 -3.157959 -1.1846313 -5.5253906 -7.8950195 -9.472473c-6.710449 -3.9470825 -26.27124 -12.850403 -32.367493 -14.209961c-6.0961914 -1.3595581 -4.867859 3.2016602 -4.209961 6.05249c0.65789795 2.85083 5.1312256 6.885803 8.157471 11.05249c3.026245 4.166687 8.94751 10.000427 10.0 13.94751c1.0524902 3.9470825 -0.65875244 8.507019 -3.6849976 9.734924c-3.026245 1.2279053 -9.69165 0.13250732 -14.472473 -2.3674927c-4.7808228 -2.5 -11.361755 -7.5446167 -14.212585 -12.632507c-2.85083 -5.0879517 -0.43658447 -13.158386 -2.892395 -17.89502c-2.4558105 -4.7366943 -8.509155 -9.077881 -11.842529 -10.524963c-3.333313 -1.4470825 -5.6574707 0.5704346 -8.157471 1.8425293c-2.5 1.2720947 -6.315857 2.3692017 -6.8425293 5.790039c-0.52667236 3.4208374 5.4370117 9.29657 3.682434 14.734924c-1.7545776 5.4382935 -11.841675 14.912476 -14.209961 17.89502" fill-rule="evenodd"/><path fill="#000000" fill-opacity="0.0" d="m696.40814 633.0018c15.175415 -1.852417 72.76288 -7.578491 91.05249 -11.114502c18.289612 -3.5360718 18.421692 -8.460205 18.685059 -10.101868c0.26330566 -1.6416626 -13.20166 -2.7366333 -17.10498 0.25195312c-3.9033813 2.9885254 -9.73584 12.501709 -6.3150024 17.679443c3.4208374 5.1777344 10.173218 10.566223 26.839905 13.386841c16.666687 2.8206177 64.95801 5.052124 73.160095 3.5368652c8.202087 -1.5152588 -19.29834 -7.997925 -23.94751 -12.62854c-4.64917 -4.630615 -6.79834 -12.7977295 -3.9475098 -15.155273c2.85083 -2.357483 20.0 -1.4312744 21.05249 1.0101929c1.0524902 2.4414673 -7.1932983 9.13446 -14.737488 13.638733c-7.5441895 4.5042725 -25.088806 15.828308 -30.527588 13.386841c-5.4387207 -2.4415283 2.5 -21.132019 -2.1049805 -28.035767c-4.6049805 -6.9037476 -21.665344 -17.46997 -25.524963 -13.38678c-3.859558 4.08313 7.8062134 28.582336 2.3674927 37.88562c-5.4387817 9.303284 -12.368347 15.450012 -35.0 17.933899c-22.631653 2.4838867 -88.02716 6.1887207 -100.79004 -3.0305786c-12.762878 -9.219238 17.19513 -41.845337 24.212585 -52.285156c7.017517 -10.439819 18.112 -14.352905 17.892395 -10.35376c-0.21960449 3.9992065 -23.90332 27.066284 -19.20996 34.348755c4.6933594 7.2824707 59.168396 6.3151245 47.370056 9.34613c-11.79834 3.0309448 -94.388 11.154846 -118.160095 8.839722c-23.772095 -2.3151245 -26.095337 -17.763 -24.472412 -22.730408c1.6229248 -4.967346 31.27118 -10.020386 34.20996 -7.0737915c2.9387817 2.9465942 -19.69159 17.17566 -16.577454 24.753296c3.1141968 7.5776367 30.174988 23.112 35.262512 20.712524c5.0874634 -2.3995361 -3.947998 -24.585327 -4.737549 -35.10956c-0.7896118 -10.524231 -3.2458496 -24.246887 0 -28.035706c3.2458496 -3.7888184 17.676697 -6.821045 19.475037 5.3027954c1.7983398 12.123901 -19.386658 57.211 -8.684998 67.44043c10.70166 10.229492 58.24585 -4.7162476 72.89502 -6.0635986c14.64917 -1.3473511 10.70166 1.2209473 15.0 -2.0203857c4.29834 -3.241272 8.991638 -14.522949 10.789978 -17.427551" fill-rule="evenodd"/><path stroke="#ffe599" stroke-width="4.0" stroke-linejoin="round" stroke-linecap="butt" d="m696.40814 633.0018c15.175415 -1.852417 72.76288 -7.578491 91.05249 -11.114502c18.289612 -3.5360718 18.421692 -8.460205 18.685059 -10.101868c0.26330566 -1.6416626 -13.20166 -2.7366333 -17.10498 0.25195312c-3.9033813 2.9885254 -9.73584 12.501709 -6.3150024 17.679443c3.4208374 5.1777344 10.173218 10.566223 26.839905 13.386841c16.666687 2.8206177 64.95801 5.052124 73.160095 3.5368652c8.202087 -1.5152588 -19.29834 -7.997925 -23.94751 -12.62854c-4.64917 -4.630615 -6.79834 -12.7977295 -3.9475098 -15.155273c2.85083 -2.357483 20.0 -1.4312744 21.05249 1.0101929c1.0524902 2.4414673 -7.1932983 9.13446 -14.737488 13.638733c-7.5441895 4.5042725 -25.088806 15.828308 -30.527588 13.386841c-5.4387207 -2.4415283 2.5 -21.132019 -2.1049805 -28.035767c-4.6049805 -6.9037476 -21.665344 -17.46997 -25.524963 -13.38678c-3.859558 4.08313 7.8062134 28.582336 2.3674927 37.88562c-5.4387817 9.303284 -12.368347 15.450012 -35.0 17.933899c-22.631653 2.4838867 -88.02716 6.1887207 -100.79004 -3.0305786c-12.762878 -9.219238 17.19513 -41.845337 24.212585 -52.285156c7.017517 -10.439819 18.112 -14.352905 17.892395 -10.35376c-0.21960449 3.9992065 -23.90332 27.066284 -19.20996 34.348755c4.6933594 7.2824707 59.168396 6.3151245 47.370056 9.34613c-11.79834 3.0309448 -94.388 11.154846 -118.160095 8.839722c-23.772095 -2.3151245 -26.095337 -17.763 -24.472412 -22.730408c1.6229248 -4.967346 31.27118 -10.020386 34.20996 -7.0737915c2.9387817 2.9465942 -19.69159 17.17566 -16.577454 24.753296c3.1141968 7.5776367 30.174988 23.112 35.262512 20.712524c5.0874634 -2.3995361 -3.947998 -24.585327 -4.737549 -35.10956c-0.7896118 -10.524231 -3.2458496 -24.246887 0 -28.035706c3.2458496 -3.7888184 17.676697 -6.821045 19.475037 5.3027954c1.7983398 12.123901 -19.386658 57.211 -8.684998 67.44043c10.70166 10.229492 58.24585 -4.7162476 72.89502 -6.0635986c14.64917 -1.3473511 10.70166 1.2209473 15.0 -2.0203857c4.29834 -3.241272 8.991638 -14.522949 10.789978 -17.427551" fill-rule="evenodd"/><path fill="#000000" fill-opacity="0.0" d="m538.6706 642.1056c7.631653 -5.70166 25.438782 -33.85913 45.79004 -34.20996c20.351257 -0.35083008 70.878845 25.438293 76.317566 32.10498c5.4387817 6.666687 -30.439148 8.772095 -43.684998 7.8950195c-13.24585 -0.8770752 -39.562134 -9.209961 -35.79004 -13.157471c3.7720947 -3.9475098 39.65045 -8.772949 58.422546 -10.527588c18.772095 -1.7545776 41.31543 -6.2283325 54.20996 0c12.894592 6.2283936 13.157532 40.878845 23.157532 37.370117c10.0 -3.508789 33.68457 -47.632996 36.84247 -58.422607c3.157959 -10.789551 -8.333313 -4.736206 -17.894958 -6.3149414c-9.561707 -1.5787354 -35.352173 -7.894165 -39.475098 -3.1574707c-4.122925 4.7366333 5.1758423 23.068665 14.737549 31.577393c9.5616455 8.508789 24.82544 21.492615 42.632507 19.475098c17.807129 -2.017517 41.490845 -30.264221 64.21002 -31.580078c22.719116 -1.3157959 59.56122 21.053406 72.10498 23.685059c12.543701 2.6316528 5.350403 -9.210876 3.1574707 -7.8950195c-2.1929321 1.3158569 -15.349976 13.070862 -16.314941 15.790039c-0.96502686 2.7191772 6.314514 1.8407593 10.524902 0.52490234c4.210388 -1.3157959 12.895447 -5.3499146 14.737549 -8.419922c1.842102 -3.0700073 0.61328125 -7.543762 -3.6850586 -10.0c-4.29834 -2.4562378 -24.034973 -6.755005 -22.10498 -4.737549c1.9299927 2.017517 35.43921 13.509216 33.68506 16.84253c-1.7541504 3.333313 -33.332886 2.4558105 -44.20996 3.1574707c-10.877136 0.70166016 -17.543762 0.8770752 -21.052551 1.0524902" fill-rule="evenodd"/><path stroke="#ffe599" stroke-width="4.0" stroke-linejoin="round" stroke-linecap="butt" d="m538.6706 642.1056c7.631653 -5.70166 25.438782 -33.85913 45.79004 -34.20996c20.351257 -0.35083008 70.878845 25.438293 76.317566 32.10498c5.4387817 6.666687 -30.439148 8.772095 -43.684998 7.8950195c-13.24585 -0.8770752 -39.562134 -9.209961 -35.79004 -13.157471c3.7720947 -3.9475098 39.65045 -8.772949 58.422546 -10.527588c18.772095 -1.7545776 41.31543 -6.2283325 54.20996 0c12.894592 6.2283936 13.157532 40.878845 23.157532 37.370117c10.0 -3.508789 33.68457 -47.632996 36.84247 -58.422607c3.157959 -10.789551 -8.333313 -4.736206 -17.894958 -6.3149414c-9.561707 -1.5787354 -35.352173 -7.894165 -39.475098 -3.1574707c-4.122925 4.7366333 5.1758423 23.068665 14.737549 31.577393c9.5616455 8.508789 24.82544 21.492615 42.632507 19.475098c17.807129 -2.017517 41.490845 -30.264221 64.21002 -31.580078c22.719116 -1.3157959 59.56122 21.053406 72.10498 23.685059c12.543701 2.6316528 5.350403 -9.210876 3.1574707 -7.8950195c-2.1929321 1.3158569 -15.349976 13.070862 -16.314941 15.790039c-0.96502686 2.7191772 6.314514 1.8407593 10.524902 0.52490234c4.210388 -1.3157959 12.895447 -5.3499146 14.737549 -8.419922c1.842102 -3.0700073 0.61328125 -7.543762 -3.6850586 -10.0c-4.29834 -2.4562378 -24.034973 -6.755005 -22.10498 -4.737549c1.9299927 2.017517 35.43921 13.509216 33.68506 16.84253c-1.7541504 3.333313 -33.332886 2.4558105 -44.20996 3.1574707c-10.877136 0.70166016 -17.543762 0.8770752 -21.052551 1.0524902" fill-rule="evenodd"/><path fill="#e69138" d="m427.06677 640.19l0 0c-0.30444336 -1.3858643 0.5722046 -2.7560425 1.9580383 -3.0604858l10.036621 -2.2046509l0 0c0.6654968 -0.1461792 1.3618164 -0.022033691 1.9357605 0.3451538c0.5739441 0.3671875 0.9784851 0.9473877 1.1246948 1.612854l2.2046814 10.036682c0.30441284 1.3858032 -0.5722351 2.7559814 -1.9580383 3.0604248l-10.036652 2.204712c-1.3858032 0.30438232 -2.756012 -0.5722656 -3.0604248 -1.9580688z" fill-rule="evenodd"/><path fill="#e69138" d="m548.84766 638.5285l0 0c0.17974854 -1.7511597 1.7450562 -3.0249634 3.4961548 -2.8452148l12.682312 1.3018188l0 0c0.84088135 0.08630371 1.6130981 0.5031738 2.1466675 1.1588135c0.53356934 0.65563965 0.7848511 1.4963989 0.6984863 2.3372803l-1.3018188 12.682312c-0.17974854 1.7510986 -1.7449951 3.0249634 -3.4960938 2.8452148l-12.682312 -1.3018188c-1.7510986 -0.17974854 -3.0249634 -1.7450562 -2.8452148 -3.4961548z" fill-rule="evenodd"/><path fill="#e69138" d="m621.73883 623.2032l0 0c-0.3652954 -1.6641235 0.6876221 -3.3093262 2.3517456 -3.6746216l12.052368 -2.64563l0 0c0.7991333 -0.17541504 1.6352539 -0.026245117 2.3244019 0.41479492c0.6890869 0.44104004 1.1748047 1.1378174 1.3502197 1.9369507l2.64563 12.052368c0.3652954 1.6641235 -0.6876221 3.3093262 -2.3517456 3.6746216l-12.052368 2.64563c-1.6641235 0.3652954 -3.3093262 -0.6876221 -3.6746216 -2.3517456z" fill-rule="evenodd"/><path fill="#e69138" d="m742.8935 623.8713l0 0c1.0552979 -1.4089966 3.0530396 -1.6957397 4.462036 -0.6404419l10.204651 7.6429443l0 0c0.67663574 0.5067749 1.1242065 1.2615967 1.2443237 2.0983887c0.12011719 0.836792 -0.09710693 1.6870728 -0.60388184 2.3636475l-7.6430054 10.204651c-1.0552979 1.4089966 -3.0529785 1.6957397 -4.462036 0.6404419l-10.20459 -7.6430054c-1.4089966 -1.0552979 -1.6957397 -3.0529785 -0.6404419 -4.462036z" fill-rule="evenodd"/><path fill="#e69138" d="m645.4374 653.3347l0 0c-1.50177 -0.9190674 -1.9741821 -2.8815308 -1.0551758 -4.383301l6.656128 -10.876526l0 0c0.4413452 -0.7211914 1.151062 -1.2374878 1.9731445 -1.4353638c0.8220215 -0.19787598 1.6889648 -0.06109619 2.4101562 0.38024902l10.876526 6.656067c1.50177 0.9190674 1.9741821 2.8815308 1.0551147 4.383301l-6.656067 10.876526c-0.9190674 1.50177 -2.8815308 1.9741821 -4.383301 1.0551147z" fill-rule="evenodd"/><path fill="#e69138" d="m797.766 649.0027l0 0c0.2609253 -1.6612549 1.8191528 -2.7964478 3.4804077 -2.5355225l12.031372 1.8897705l0 0c0.7977295 0.12530518 1.5130615 0.5623779 1.9885254 1.2150879c0.4755249 0.6526489 0.6722412 1.4675293 0.54693604 2.2652588l-1.8897705 12.031433c-0.2609253 1.6611938 -1.8190918 2.7963867 -3.4803467 2.5354614l-12.031372 -1.8897705c-1.6612549 -0.2609253 -2.7964478 -1.8191528 -2.5355225 -3.4803467z" fill-rule="evenodd"/><path fill="#e69138" d="m842.6666 627.6948l0 0c1.5974731 -0.7421875 3.4941406 -0.04888916 4.236328 1.548584l5.375244 11.569458l0 0c0.3564453 0.76708984 0.39349365 1.6444092 0.10308838 2.4388428c-0.29040527 0.7944946 -0.8845215 1.44104 -1.6516724 1.7974243l-11.569458 5.375305c-1.5974121 0.7421875 -3.4940796 0.04888916 -4.236267 -1.548584l-5.375305 -11.569458c-0.7421875 -1.5974121 -0.048828125 -3.4940796 1.548584 -4.236267z" fill-rule="evenodd"/><path fill="#6aa84f" d="m471.5319 622.37476l45.385834 10.677124l-0.9133911 3.9685059l-45.385834 -10.677185z" fill-rule="evenodd"/><path fill="#6aa84f" d="m531.37225 659.0459l31.874023 -7.2755737l1.9526978 8.503906l-31.873962 7.2755737z" fill-rule="evenodd"/><path fill="#6aa84f" d="m793.5658 631.85895l31.874023 -7.2755737l0.66137695 2.9291382l-31.874023 7.2755737z" fill-rule="evenodd"/><path fill="#6aa84f" d="m743.82904 662.61707l-9.826782 -23.590515l6.2992554 -2.645691l9.826721 23.590576z" fill-rule="evenodd"/><path fill="#6aa84f" d="m682.3514 656.46405l31.937012 6.9921265l-1.8582764 8.535461l-31.937012 -6.9921265z" fill-rule="evenodd"/><path fill="#f6f12d" d="m575.84644 655.6981l0 0c-0.24639893 -1.6177368 0.8652344 -3.1289673 2.4829712 -3.3754272l11.716431 -1.784729l0 0c0.77685547 -0.11834717 1.5689697 0.07678223 2.2019653 0.54241943c0.6329956 0.4656372 1.0551147 1.1636963 1.1734619 1.9405518l1.784729 11.716431c0.24645996 1.6177368 -0.8652344 3.1289673 -2.4829712 3.3754272l-11.716431 1.784729c-1.6177368 0.24645996 -3.1289673 -0.8652344 -3.3753662 -2.4829712z" fill-rule="evenodd"/><path fill="#f6f12d" d="m684.612 629.4857l0 0c0.15655518 -1.519165 1.5149536 -2.6237793 3.0341797 -2.4672241l11.002502 1.1338501l0 0c0.7294922 0.07519531 1.399292 0.43707275 1.8619995 1.0061035c0.46270752 0.56903076 0.6804199 1.298523 0.6052246 2.0280762l-1.1338501 11.002502c-0.15655518 1.519165 -1.5150146 2.6237793 -3.0341797 2.4672241l-11.002502 -1.1337891c-1.519165 -0.15661621 -2.6237793 -1.5150146 -2.4672241 -3.0342407z" fill-rule="evenodd"/><path fill="#f6f12d" d="m657.4353 614.15594l0 0c-0.35083008 -1.4873047 0.5704956 -2.977356 2.0577393 -3.328186l10.771545 -2.5406494l0 0c0.7142334 -0.16845703 1.4661255 -0.04626465 2.090271 0.3395996c0.6241455 0.3859253 1.069458 1.0039673 1.237915 1.7182007l2.5406494 10.771545c0.35083008 1.4873047 -0.5704956 2.977356 -2.0578003 3.328125l-10.771545 2.5407104c-1.4872437 0.35076904 -2.977356 -0.5704956 -3.328125 -2.0578003z" fill-rule="evenodd"/><path fill="#f6f12d" d="m480.43875 643.14716l0 0c0.15655518 -1.519165 1.5149841 -2.6237793 3.0341797 -2.4672241l11.002502 1.1338501l0 0c0.7295532 0.07513428 1.3993225 0.43707275 1.86203 1.0061035c0.462677 0.56903076 0.6803894 1.298523 0.6052246 2.0280762l-1.1338501 11.002502c-0.15655518 1.519165 -1.5150146 2.6237793 -3.0341797 2.4672241l-11.002533 -1.1338501c-1.519165 -0.15655518 -2.6237793 -1.5150146 -2.4672241 -3.0341797z" fill-rule="evenodd"/><path fill="#f6f12d" d="m751.9496 653.4769l0 0c-0.7392578 -1.6901855 0.03161621 -3.659729 1.7218628 -4.398987l12.241333 -5.354309l0 0c0.8116455 -0.3550415 1.7311401 -0.37304688 2.5560913 -0.0501709c0.8250122 0.322937 1.487915 0.96032715 1.8429565 1.7719727l5.354248 12.241394c0.73931885 1.6901855 -0.03161621 3.659729 -1.7218018 4.398987l-12.241333 5.354309c-1.6902466 0.73931885 -3.65979 -0.03161621 -4.399048 -1.7218018z" fill-rule="evenodd"/><path fill="#000000" fill-opacity="0.0" d="m430.64133 953.29364c0.70166016 -11.228394 -4.562134 -55.089233 4.209961 -67.37012c8.772095 -12.280823 39.650482 -18.244934 48.422577 -6.3149414c8.772095 11.929993 -2.6321106 65.08795 4.2099915 77.89502c6.8420715 12.807068 30.526642 3.508728 36.8425 -1.0524902c6.315857 -4.5612793 -6.140442 -21.22705 1.0524902 -26.314941c7.192932 -5.0879517 33.50879 -9.826355 42.10498 -4.2126465c8.596252 5.6137695 -1.404602 32.280884 9.472473 37.89502c10.877075 5.614197 47.54419 5.614624 55.79004 -4.209961c8.245789 -9.824585 -2.8062134 -49.650024 -6.3150024 -54.73755c-3.508728 -5.0874634 -13.33374 16.493042 -14.737549 24.212585c-1.4037476 7.7196045 10.525391 18.771667 6.3150024 22.105042c-4.210449 3.333313 -26.665344 5.0878906 -31.577454 -2.1050415c-4.9120483 -7.192871 12.806641 -34.385803 2.1049805 -41.05249c-10.70166 -6.666626 -54.736206 6.666687 -66.31494 1.0524902c-11.578735 -5.6141357 -25.087036 -28.772522 -3.1574707 -34.737488c21.929565 -5.965027 112.10364 -14.912109 134.73492 -1.0524902c22.631226 13.859558 -7.5441895 69.12244 1.0524902 84.20996c8.59668 15.087463 41.404602 19.297485 50.527527 6.3149414c9.122925 -12.982483 -0.52667236 -69.1225 4.209961 -84.20996c4.7366943 -15.087463 19.824158 -9.648315 24.210022 -6.3149414c4.385803 3.333313 -7.1933594 22.104553 2.1049805 26.314941c9.29834 4.210388 45.088318 -4.5612183 53.684998 -1.0524902c8.59668 3.508728 7.8950195 18.245422 -2.1049805 22.10498c-10.0 3.859558 -48.070435 -6.315857 -57.89502 1.0524902c-9.824585 7.368347 -8.069946 35.087036 -1.0524902 43.15747c7.017517 8.070435 29.297913 3.685913 43.15747 5.2651367c13.859619 1.5791626 32.280884 18.245361 40.0 4.209961c7.7191772 -14.035461 2.6307983 -72.282166 6.3150024 -88.42261c3.684143 -16.14038 13.509155 -23.332458 15.790039 -8.419922c2.2808228 14.912476 -1.7542114 81.57916 -2.1050415 97.89502" fill-rule="evenodd"/><path stroke="#ff571b" stroke-width="8.0" stroke-linejoin="round" stroke-linecap="butt" d="m430.64133 953.29364c0.70166016 -11.228394 -4.562134 -55.089233 4.209961 -67.37012c8.772095 -12.280823 39.650482 -18.244934 48.422577 -6.3149414c8.772095 11.929993 -2.6321106 65.08795 4.2099915 77.89502c6.8420715 12.807068 30.526642 3.508728 36.8425 -1.0524902c6.315857 -4.5612793 -6.140442 -21.22705 1.0524902 -26.314941c7.192932 -5.0879517 33.50879 -9.826355 42.10498 -4.2126465c8.596252 5.6137695 -1.404602 32.280884 9.472473 37.89502c10.877075 5.614197 47.54419 5.614624 55.79004 -4.209961c8.245789 -9.824585 -2.8062134 -49.650024 -6.3150024 -54.73755c-3.508728 -5.0874634 -13.33374 16.493042 -14.737549 24.212585c-1.4037476 7.7196045 10.525391 18.771667 6.3150024 22.105042c-4.210449 3.333313 -26.665344 5.0878906 -31.577454 -2.1050415c-4.9120483 -7.192871 12.806641 -34.385803 2.1049805 -41.05249c-10.70166 -6.666626 -54.736206 6.666687 -66.31494 1.0524902c-11.578735 -5.6141357 -25.087036 -28.772522 -3.1574707 -34.737488c21.929565 -5.965027 112.10364 -14.912109 134.73492 -1.0524902c22.631226 13.859558 -7.5441895 69.12244 1.0524902 84.20996c8.59668 15.087463 41.404602 19.297485 50.527527 6.3149414c9.122925 -12.982483 -0.52667236 -69.1225 4.209961 -84.20996c4.7366943 -15.087463 19.824158 -9.648315 24.210022 -6.3149414c4.385803 3.333313 -7.1933594 22.104553 2.1049805 26.314941c9.29834 4.210388 45.088318 -4.5612183 53.684998 -1.0524902c8.59668 3.508728 7.8950195 18.245422 -2.1049805 22.10498c-10.0 3.859558 -48.070435 -6.315857 -57.89502 1.0524902c-9.824585 7.368347 -8.069946 35.087036 -1.0524902 43.15747c7.017517 8.070435 29.297913 3.685913 43.15747 5.2651367c13.859619 1.5791626 32.280884 18.245361 40.0 4.209961c7.7191772 -14.035461 2.6307983 -72.282166 6.3150024 -88.42261c3.684143 -16.14038 13.509155 -23.332458 15.790039 -8.419922c2.2808228 14.912476 -1.7542114 81.57916 -2.1050415 97.89502" fill-rule="evenodd"/><path fill="#000000" fill-opacity="0.0" d="m491.04724 773.4712c17.368317 0 85.43829 -2.982483 104.20996 0c18.771667 2.982544 15.437439 14.561707 8.419983 17.89502c-7.017517 3.333374 -41.051636 -7.1933594 -50.524963 2.1049805c-9.473328 9.29834 -14.735779 44.73755 -6.3149414 53.68506c8.420837 8.94751 44.55951 12.10498 56.839905 0c12.2803955 -12.10498 10.0 -59.6474 16.84253 -72.629944c6.8424683 -12.982483 21.756287 -17.545471 24.212585 -5.2650757c2.4562378 12.2803955 -20.352173 64.56128 -9.475098 78.94751c10.877075 14.3862915 61.93048 9.124268 74.73755 7.370056c12.807068 -1.7541504 10.70166 -14.912476 2.1049805 -17.894958c-8.59668 -2.982544 -44.38672 4.2108154 -53.68506 0c-9.29834 -4.2108765 -15.964539 -20.878845 -2.1049805 -25.265137c13.859619 -4.3862305 71.22748 -8.59668 85.26251 -1.0524902c14.034973 7.5441895 -5.4387817 38.773438 -1.0524902 46.317627c4.3862305 7.5441284 21.931274 13.509155 27.370056 -1.0525513c5.4387207 -14.5616455 4.385376 -71.931274 5.262451 -86.317566" fill-rule="evenodd"/><path stroke="#ff571b" stroke-width="8.0" stroke-linejoin="round" stroke-linecap="butt" d="m491.04724 773.4712c17.368317 0 85.43829 -2.982483 104.20996 0c18.771667 2.982544 15.437439 14.561707 8.419983 17.89502c-7.017517 3.333374 -41.051636 -7.1933594 -50.524963 2.1049805c-9.473328 9.29834 -14.735779 44.73755 -6.3149414 53.68506c8.420837 8.94751 44.55951 12.10498 56.839905 0c12.2803955 -12.10498 10.0 -59.6474 16.84253 -72.629944c6.8424683 -12.982483 21.756287 -17.545471 24.212585 -5.2650757c2.4562378 12.2803955 -20.352173 64.56128 -9.475098 78.94751c10.877075 14.3862915 61.93048 9.124268 74.73755 7.370056c12.807068 -1.7541504 10.70166 -14.912476 2.1049805 -17.894958c-8.59668 -2.982544 -44.38672 4.2108154 -53.68506 0c-9.29834 -4.2108765 -15.964539 -20.878845 -2.1049805 -25.265137c13.859619 -4.3862305 71.22748 -8.59668 85.26251 -1.0524902c14.034973 7.5441895 -5.4387817 38.773438 -1.0524902 46.317627c4.3862305 7.5441284 21.931274 13.509155 27.370056 -1.0525513c5.4387207 -14.5616455 4.385376 -71.931274 5.262451 -86.317566" fill-rule="evenodd"/><path fill="#ffe599" d="m336.31683 652.20996c31.148071 7.017517 118.74124 49.473755 189.98566 58.94751c71.244385 9.473755 166.5805 7.7196045 237.48077 -2.1049805c70.90027 -9.824585 163.14008 -52.28125 187.9209 -56.84253c24.780823 -4.5612183 -17.552795 19.299683 -39.236023 29.475098c-21.683228 10.175415 -36.827515 22.63031 -90.86328 31.577393c-54.035706 8.9470825 -179.31543 19.999573 -233.3512 22.10498c-54.035767 2.1054688 -49.390015 1.5800781 -90.86325 -9.472412c-41.473297 -11.05249 -131.1308 -44.561707 -157.97641 -56.84253c-26.845581 -12.280823 -34.24524 -23.859985 -3.097168 -16.84253z" fill-rule="evenodd"/><path fill="#ffe599" d="m409.47287 1170.3162c8.772095 -0.8770752 34.38803 11.754639 64.212616 16.84253c29.824585 5.0878906 82.8053 11.57959 114.734924 13.685059c31.929565 2.1053467 42.456238 0.5266113 76.84247 -1.0524902c34.38629 -1.5792236 97.194275 -4.9138184 129.4751 -8.422607c32.280823 -3.508789 52.45581 -13.156616 64.20996 -12.629883c11.75415 0.5266113 17.894165 11.404175 6.3149414 15.790039c-11.579163 4.385742 -48.772522 8.946167 -75.78998 10.524902c-27.017517 1.5787354 -60.701233 -2.2803955 -86.315 -1.0524902c-25.613708 1.2279053 -47.542847 7.7182617 -67.36743 8.419922c-19.824585 0.70166016 -31.053833 -2.1049805 -51.58008 -4.209961c-20.526245 -2.1049805 -53.507385 -7.8936768 -71.57739 -8.419922c-18.070007 -0.5262451 -21.579193 6.4907227 -36.84253 5.262451c-15.263336 -1.2283936 -43.6846 -6.8430176 -54.73755 -12.632568c-11.0529175 -5.789551 -20.352142 -21.227905 -11.580048 -22.10498z" fill-rule="evenodd"/></g></svg>